<svg width="20" height="18" viewBox="0 0 20 18" fill="none" xmlns="http://www.w3.org/2000/svg">
<path d="M14.8392 2.7959C15.2189 2.79592 15.5327 3.07829 15.5824 3.44434L15.5892 3.5459V15.3457L18.3851 12.5391C18.6772 12.2456 19.1521 12.2441 19.4456 12.5361C19.7125 12.8018 19.738 13.2186 19.5208 13.5127L19.4486 13.5967L15.3705 17.6934C15.3361 17.7279 15.2989 17.7578 15.2601 17.7842C15.2504 17.7908 15.2389 17.7946 15.2289 17.8008C15.1989 17.8191 15.1697 17.8378 15.138 17.8516C15.1254 17.8571 15.112 17.8604 15.099 17.8652C15.0656 17.8776 15.032 17.8881 14.9974 17.8955C14.968 17.9018 14.9382 17.9074 14.9076 17.9102C14.8942 17.9114 14.8809 17.9116 14.8675 17.9121C14.8581 17.9125 14.8487 17.9141 14.8392 17.9141C14.8287 17.9141 14.8183 17.9116 14.808 17.9111C14.7804 17.91 14.7532 17.9075 14.7259 17.9033C14.7081 17.9006 14.6906 17.8975 14.6732 17.8936C14.6464 17.8875 14.6202 17.8801 14.5941 17.8711C14.576 17.8648 14.5588 17.8572 14.5414 17.8496C14.5199 17.8403 14.4986 17.8308 14.4779 17.8193C14.459 17.8089 14.4411 17.7971 14.4232 17.7852C14.4132 17.7784 14.4017 17.7739 14.3919 17.7666L14.3626 17.7412C14.3511 17.7316 14.3395 17.7222 14.3285 17.7119L14.308 17.6934L10.2298 13.5967C9.93772 13.3032 9.93837 12.8283 10.2318 12.5361C10.4987 12.2705 10.9162 12.2473 11.2093 12.4658L11.2933 12.5391L14.0892 15.3477V3.5459C14.0893 3.1318 14.4251 2.7959 14.8392 2.7959ZM4.93295 0.0849609C4.9654 0.0859155 4.99751 0.0886085 5.02963 0.09375C5.04379 0.0960107 5.05775 0.0985211 5.07163 0.101562C5.10073 0.107939 5.12924 0.116103 5.15756 0.125977C5.17214 0.131068 5.18638 0.136628 5.20053 0.142578C5.22733 0.153828 5.25305 0.167139 5.27866 0.181641C5.29193 0.18916 5.30497 0.196788 5.31772 0.205078C5.33076 0.213561 5.34515 0.220115 5.35776 0.229492L5.39585 0.261719C5.40129 0.26635 5.40616 0.271584 5.41147 0.276367L5.44272 0.302734L9.51987 4.39941C9.812 4.6929 9.81124 5.16772 9.51792 5.45996C9.25105 5.72559 8.83446 5.74876 8.54135 5.53027L8.45737 5.45801L5.66049 2.64746V14.4502C5.66049 14.8644 5.32471 15.2002 4.91049 15.2002C4.5309 15.2001 4.21698 14.9178 4.16733 14.5518L4.16049 14.4502V2.64746L1.3646 5.45801C1.09894 5.72478 0.682106 5.74937 0.388033 5.53223L0.304048 5.45996C0.0372594 5.19431 0.0117042 4.77748 0.228853 4.4834L0.301119 4.39941L4.37924 0.302734C4.44918 0.232499 4.52974 0.179304 4.61557 0.142578C4.62218 0.139749 4.62938 0.138385 4.63608 0.135742C4.67191 0.121627 4.70824 0.109949 4.74545 0.101562C4.77702 0.0944575 4.8092 0.0889241 4.84213 0.0859375C4.85579 0.0846876 4.86946 0.084488 4.88315 0.0839844C4.89223 0.0836556 4.90133 0.0830106 4.91049 0.0830078C4.91795 0.0830078 4.92555 0.0847449 4.93295 0.0849609Z" fill="#127234"/>
</svg>
