<svg width="28" height="28" viewBox="0 0 28 28" fill="none" xmlns="http://www.w3.org/2000/svg">
<path d="M14.2834 16.2881C19.0931 16.3333 21.8261 17.3144 21.8263 20.0283C21.8263 22.6786 19.2139 23.6935 14.63 23.7842L13.9279 23.791C8.89666 23.791 6.02862 22.8292 6.02849 20.0488C6.02872 17.2655 8.90825 16.2861 13.9279 16.2861L14.2834 16.2881ZM13.9279 18.0361C9.86042 18.0361 7.77884 18.7441 7.77849 20.0488C7.77869 21.3445 9.85564 22.041 13.9279 22.041C17.9942 22.041 20.0763 21.3325 20.0763 20.0283C20.076 18.7329 17.9991 18.0362 13.9279 18.0361ZM5.72185 15.5596C6.20377 15.5264 6.62108 15.8902 6.65446 16.3721C6.68771 16.8542 6.32407 17.2724 5.84196 17.3057C5.45129 17.3326 5.06639 17.3805 4.67888 17.4521L4.29021 17.5322C3.54279 17.6786 3.04024 17.9291 2.91521 18.1914C2.82065 18.3892 2.82045 18.6205 2.91618 18.8213C3.03918 19.0804 3.53759 19.3299 4.29802 19.4863C4.77133 19.5837 5.07595 20.0462 4.97868 20.5195C4.88135 20.9929 4.41882 21.2975 3.94548 21.2002C2.68726 20.9414 1.76549 20.48 1.33513 19.5723C1.01317 18.8967 1.01341 18.1117 1.33513 17.4385C1.73993 16.5875 2.58326 16.1227 3.68864 15.8701L3.92985 15.8193C4.51409 15.6879 5.11309 15.6016 5.72185 15.5596ZM22.1447 15.5596C22.7533 15.6016 23.3522 15.6881 23.9123 15.8145C25.1592 16.0586 26.0961 16.5264 26.5314 17.4385C26.8519 18.1124 26.8519 18.8966 26.5314 19.5723C26.099 20.4808 25.1777 20.9416 23.9201 21.2002C23.4467 21.2975 22.9842 20.9929 22.8869 20.5195C22.7897 20.0462 23.0943 19.5837 23.5675 19.4863C24.3285 19.3299 24.828 19.0804 24.9513 18.8213C25.0461 18.6215 25.0461 18.3889 24.9523 18.1914C24.8274 17.9297 24.3238 17.6778 23.5519 17.5264C23.0555 17.4147 22.5445 17.3416 22.0236 17.3057C21.5416 17.2723 21.1779 16.8541 21.2111 16.3721C21.2445 15.8901 21.6627 15.5263 22.1447 15.5596ZM13.9269 4.01074C16.9083 4.01074 19.3037 6.40539 19.3039 9.38672C19.3039 12.3691 16.9086 14.7646 13.9269 14.7646C10.9455 14.7644 8.55095 12.3689 8.55095 9.38672C8.55112 6.40558 10.9458 4.01104 13.9269 4.01074ZM7.33806 5.10938C7.82123 5.10938 8.21294 5.50123 8.21306 5.98438C8.21306 6.46762 7.82131 6.85938 7.33806 6.85938C5.95188 6.85957 4.82745 7.98352 4.82731 9.36914C4.82731 10.7549 5.95179 11.8787 7.33806 11.8789C7.82121 11.8789 8.21291 12.2708 8.21306 12.7539C8.21306 13.2372 7.82131 13.6289 7.33806 13.6289C4.98547 13.6287 3.07731 11.7215 3.07731 9.36914C3.07745 7.01685 4.98555 5.10957 7.33806 5.10938ZM20.5275 5.10938C22.8802 5.10941 24.7881 7.01676 24.7883 9.36914C24.7883 11.7216 22.8802 13.6289 20.5275 13.6289C20.0443 13.6289 19.6525 13.2372 19.6525 12.7539C19.6527 12.2708 20.0444 11.8789 20.5275 11.8789C21.9139 11.8789 23.0383 10.755 23.0383 9.36914C23.0381 7.98342 21.9138 6.85941 20.5275 6.85938C20.0443 6.85938 19.6525 6.46762 19.6525 5.98438C19.6526 5.50123 20.0443 5.10938 20.5275 5.10938ZM13.9269 5.76074C11.9123 5.76104 10.3011 7.37208 10.3009 9.38672C10.3009 11.4024 11.9121 13.0144 13.9269 13.0146C15.942 13.0146 17.5539 11.4026 17.5539 9.38672C17.5537 7.37189 15.9418 5.76074 13.9269 5.76074Z" fill="#127234"/>
</svg>
