<svg width="32" height="28" viewBox="0 0 32 28" fill="none" xmlns="http://www.w3.org/2000/svg">
<rect x="13.0117" y="7.80664" width="5.20445" height="16.9144" fill="white"/>
<path d="M17.654 1.1581L30.986 24.249C31.1892 24.6011 31.2963 25.0005 31.2963 25.4071C31.2963 25.8136 31.1893 26.213 30.986 26.5652C30.7827 26.9173 30.4903 27.2096 30.1382 27.4129C29.7861 27.6162 29.3867 27.7233 28.9801 27.7233H2.31613C1.90956 27.7233 1.51016 27.6162 1.15806 27.4129C0.80596 27.2096 0.513577 26.9173 0.310296 26.5652C0.107015 26.213 -2.58216e-06 25.8136 0 25.4071C2.58226e-06 25.0005 0.107025 24.6011 0.310311 24.249L13.6423 1.1581C14.5333 -0.386032 16.7614 -0.386032 17.654 1.1581ZM15.6481 19.4591C15.2386 19.4591 14.8458 19.6218 14.5563 19.9114C14.2667 20.2009 14.104 20.5937 14.104 21.0032C14.104 21.4128 14.2667 21.8055 14.5563 22.0951C14.8458 22.3847 15.2386 22.5474 15.6481 22.5474C16.0577 22.5474 16.4504 22.3847 16.74 22.0951C17.0296 21.8055 17.1923 21.4128 17.1923 21.0032C17.1923 20.5937 17.0296 20.2009 16.74 19.9114C16.4504 19.6218 16.0577 19.4591 15.6481 19.4591ZM15.6481 8.6502C15.2699 8.65026 14.9049 8.78911 14.6223 9.04043C14.3396 9.29175 14.1591 9.63806 14.1148 10.0137L14.104 10.1943V16.3708C14.1044 16.7644 14.2551 17.143 14.5253 17.4291C14.7955 17.7153 15.1647 17.8875 15.5576 17.9106C15.9505 17.9337 16.3374 17.8058 16.6392 17.5532C16.941 17.3006 17.135 16.9423 17.1815 16.5515L17.1923 16.3708V10.1943C17.1923 9.78481 17.0296 9.39205 16.74 9.10247C16.4504 8.81289 16.0577 8.6502 15.6481 8.6502Z" fill="#FFD54F"/>
</svg>
