<svg width="56" height="19" viewBox="0 0 56 19" fill="none" xmlns="http://www.w3.org/2000/svg">
<rect width="56" height="19" rx="9.5" fill="#4CAF50" fill-opacity="0.3"/>
<circle cx="10" cy="10" r="3" fill="#4CAF50"/>
<path d="M24.4134 14H23.2486L25.8658 6.72727H27.1335L29.7507 14H28.5859L26.5298 8.0483H26.473L24.4134 14ZM24.6087 11.152H28.3871V12.0753H24.6087V11.152ZM32.9201 8.54545V9.39773H29.9407V8.54545H32.9201ZM30.7397 7.23864H31.8015V12.3984C31.8015 12.6044 31.8323 12.7595 31.8938 12.8636C31.9554 12.9654 32.0347 13.0353 32.1317 13.0732C32.2312 13.1087 32.3389 13.1264 32.4549 13.1264C32.5401 13.1264 32.6147 13.1205 32.6786 13.1087C32.7425 13.0968 32.7923 13.0874 32.8278 13.0803L33.0195 13.9574C32.958 13.9811 32.8704 14.0047 32.7567 14.0284C32.6431 14.0545 32.5011 14.0687 32.3306 14.071C32.0513 14.0758 31.7908 14.026 31.5494 13.9219C31.3079 13.8177 31.1126 13.6567 30.9634 13.4389C30.8143 13.2211 30.7397 12.9477 30.7397 12.6186V7.23864ZM34.0946 14V8.54545H35.1564V14H34.0946ZM34.6309 7.70384C34.4462 7.70384 34.2876 7.64228 34.155 7.51918C34.0248 7.3937 33.9597 7.24455 33.9597 7.07173C33.9597 6.89654 34.0248 6.7474 34.155 6.62429C34.2876 6.49882 34.4462 6.43608 34.6309 6.43608C34.8155 6.43608 34.973 6.49882 35.1032 6.62429C35.2357 6.7474 35.302 6.89654 35.302 7.07173C35.302 7.24455 35.2357 7.3937 35.1032 7.51918C34.973 7.64228 34.8155 7.70384 34.6309 7.70384ZM41.2511 8.54545L39.2731 14H38.1367L36.1552 8.54545H37.2951L38.6765 12.7429H38.7333L40.1112 8.54545H41.2511ZM44.361 14.1101C43.8496 14.1101 43.4033 13.9929 43.0222 13.7585C42.641 13.5241 42.3451 13.1963 42.1344 12.7749C41.9237 12.3535 41.8184 11.861 41.8184 11.2976C41.8184 10.7318 41.9237 10.237 42.1344 9.81321C42.3451 9.38944 42.641 9.06037 43.0222 8.82599C43.4033 8.59162 43.8496 8.47443 44.361 8.47443C44.8723 8.47443 45.3186 8.59162 45.6998 8.82599C46.0809 9.06037 46.3768 9.38944 46.5875 9.81321C46.7982 10.237 46.9036 10.7318 46.9036 11.2976C46.9036 11.861 46.7982 12.3535 46.5875 12.7749C46.3768 13.1963 46.0809 13.5241 45.6998 13.7585C45.3186 13.9929 44.8723 14.1101 44.361 14.1101ZM44.3645 13.2188C44.696 13.2188 44.9706 13.1312 45.1884 12.956C45.4062 12.7808 45.5672 12.5476 45.6713 12.2564C45.7779 11.9652 45.8311 11.6444 45.8311 11.294C45.8311 10.946 45.7779 10.6264 45.6713 10.3352C45.5672 10.0417 45.4062 9.80611 45.1884 9.62855C44.9706 9.45099 44.696 9.36222 44.3645 9.36222C44.0307 9.36222 43.7537 9.45099 43.5336 9.62855C43.3158 9.80611 43.1536 10.0417 43.0471 10.3352C42.9429 10.6264 42.8908 10.946 42.8908 11.294C42.8908 11.6444 42.9429 11.9652 43.0471 12.2564C43.1536 12.5476 43.3158 12.7808 43.5336 12.956C43.7537 13.1312 44.0307 13.2188 44.3645 13.2188Z" fill="#4CAF50"/>
</svg>
