<svg width="88" height="19" viewBox="0 0 88 19" fill="none" xmlns="http://www.w3.org/2000/svg">
<rect width="88" height="19" rx="9.5" fill="#FFC200" fill-opacity="0.3"/>
<circle cx="10" cy="10" r="3" fill="#FFC200"/>
<path d="M23.799 14V6.72727H26.3913C26.9571 6.72727 27.4259 6.83026 27.7976 7.03622C28.1693 7.24219 28.4474 7.52391 28.6321 7.88139C28.8168 8.23651 28.9091 8.6366 28.9091 9.08168C28.9091 9.52912 28.8156 9.93158 28.6286 10.2891C28.4439 10.6442 28.1645 10.9259 27.7905 11.1342C27.4188 11.3402 26.9512 11.4432 26.3878 11.4432H24.6051V10.5128H26.2884C26.6458 10.5128 26.9358 10.4512 27.1584 10.3281C27.3809 10.2027 27.5443 10.0322 27.6484 9.81676C27.7526 9.60133 27.8047 9.3563 27.8047 9.08168C27.8047 8.80705 27.7526 8.56321 27.6484 8.35014C27.5443 8.13707 27.3797 7.97017 27.1548 7.84943C26.9323 7.72869 26.6387 7.66832 26.2741 7.66832H24.8963V14H23.799ZM32.3395 14.1101C31.8281 14.1101 31.3819 13.9929 31.0007 13.7585C30.6196 13.5241 30.3236 13.1963 30.1129 12.7749C29.9022 12.3535 29.7969 11.861 29.7969 11.2976C29.7969 10.7318 29.9022 10.237 30.1129 9.81321C30.3236 9.38944 30.6196 9.06037 31.0007 8.82599C31.3819 8.59162 31.8281 8.47443 32.3395 8.47443C32.8509 8.47443 33.2971 8.59162 33.6783 8.82599C34.0594 9.06037 34.3554 9.38944 34.5661 9.81321C34.7768 10.237 34.8821 10.7318 34.8821 11.2976C34.8821 11.861 34.7768 12.3535 34.5661 12.7749C34.3554 13.1963 34.0594 13.5241 33.6783 13.7585C33.2971 13.9929 32.8509 14.1101 32.3395 14.1101ZM32.343 13.2188C32.6745 13.2188 32.9491 13.1312 33.1669 12.956C33.3847 12.7808 33.5457 12.5476 33.6499 12.2564C33.7564 11.9652 33.8097 11.6444 33.8097 11.294C33.8097 10.946 33.7564 10.6264 33.6499 10.3352C33.5457 10.0417 33.3847 9.80611 33.1669 9.62855C32.9491 9.45099 32.6745 9.36222 32.343 9.36222C32.0092 9.36222 31.7322 9.45099 31.5121 9.62855C31.2943 9.80611 31.1321 10.0417 31.0256 10.3352C30.9214 10.6264 30.8693 10.946 30.8693 11.294C30.8693 11.6444 30.9214 11.9652 31.0256 12.2564C31.1321 12.5476 31.2943 12.7808 31.5121 12.956C31.7322 13.1312 32.0092 13.2188 32.343 13.2188ZM39.5225 11.7379V8.54545H40.5879V14H39.5439V13.0554H39.487C39.3616 13.3466 39.1603 13.5893 38.8833 13.7834C38.6087 13.9751 38.2666 14.071 37.8571 14.071C37.5067 14.071 37.1966 13.9941 36.9267 13.8402C36.6592 13.6839 36.4484 13.4531 36.2946 13.1477C36.1431 12.8423 36.0673 12.4647 36.0673 12.0149V8.54545H37.1291V11.8871C37.1291 12.2588 37.2321 12.5547 37.438 12.7749C37.644 12.995 37.9115 13.1051 38.2406 13.1051C38.4395 13.1051 38.6371 13.0554 38.8336 12.956C39.0325 12.8565 39.197 12.7062 39.3272 12.505C39.4598 12.3037 39.5249 12.0481 39.5225 11.7379ZM44.3121 14.1101C43.7842 14.1101 43.3297 13.9905 42.9485 13.7514C42.5697 13.5099 42.2785 13.1773 42.0749 12.7536C41.8713 12.3298 41.7695 11.8445 41.7695 11.2976C41.7695 10.7436 41.8737 10.2547 42.082 9.83097C42.2904 9.40483 42.5839 9.07221 42.9627 8.8331C43.3415 8.59399 43.7878 8.47443 44.3015 8.47443C44.7158 8.47443 45.0851 8.55137 45.4094 8.70526C45.7338 8.85677 45.9954 9.06984 46.1942 9.34446C46.3955 9.61908 46.515 9.93987 46.5529 10.3068H45.5195C45.4627 10.0511 45.3325 9.83097 45.1289 9.64631C44.9277 9.46165 44.6578 9.36932 44.3192 9.36932C44.0233 9.36932 43.7641 9.44744 43.5415 9.60369C43.3214 9.75758 43.1497 9.97775 43.0266 10.2642C42.9035 10.5483 42.842 10.8845 42.842 11.2727C42.842 11.6705 42.9023 12.0137 43.0231 12.3026C43.1438 12.5914 43.3143 12.8151 43.5344 12.9737C43.757 13.1323 44.0186 13.2116 44.3192 13.2116C44.5205 13.2116 44.7028 13.175 44.8661 13.1016C45.0318 13.0258 45.1703 12.9181 45.2816 12.7784C45.3952 12.6387 45.4746 12.4706 45.5195 12.2741H46.5529C46.515 12.6269 46.4002 12.9418 46.2085 13.2188C46.0167 13.4957 45.7598 13.7135 45.4379 13.8722C45.1183 14.0308 44.743 14.1101 44.3121 14.1101ZM49.986 14.1101C49.4746 14.1101 49.0283 13.9929 48.6472 13.7585C48.266 13.5241 47.9701 13.1963 47.7594 12.7749C47.5487 12.3535 47.4434 11.861 47.4434 11.2976C47.4434 10.7318 47.5487 10.237 47.7594 9.81321C47.9701 9.38944 48.266 9.06037 48.6472 8.82599C49.0283 8.59162 49.4746 8.47443 49.986 8.47443C50.4973 8.47443 50.9436 8.59162 51.3248 8.82599C51.7059 9.06037 52.0018 9.38944 52.2125 9.81321C52.4232 10.237 52.5286 10.7318 52.5286 11.2976C52.5286 11.861 52.4232 12.3535 52.2125 12.7749C52.0018 13.1963 51.7059 13.5241 51.3248 13.7585C50.9436 13.9929 50.4973 14.1101 49.986 14.1101ZM49.9895 13.2188C50.321 13.2188 50.5956 13.1312 50.8134 12.956C51.0312 12.7808 51.1922 12.5476 51.2963 12.2564C51.4029 11.9652 51.4561 11.6444 51.4561 11.294C51.4561 10.946 51.4029 10.6264 51.2963 10.3352C51.1922 10.0417 51.0312 9.80611 50.8134 9.62855C50.5956 9.45099 50.321 9.36222 49.9895 9.36222C49.6557 9.36222 49.3787 9.45099 49.1586 9.62855C48.9408 9.80611 48.7786 10.0417 48.6721 10.3352C48.5679 10.6264 48.5158 10.946 48.5158 11.294C48.5158 11.6444 48.5679 11.9652 48.6721 12.2564C48.7786 12.5476 48.9408 12.7808 49.1586 12.956C49.3787 13.1312 49.6557 13.2188 49.9895 13.2188ZM57.0598 14H55.8951L58.5123 6.72727H59.78L62.3972 14H61.2324L59.1763 8.0483H59.1195L57.0598 14ZM57.2551 11.152H61.0336V12.0753H57.2551V11.152ZM65.5666 8.54545V9.39773H62.5872V8.54545H65.5666ZM63.3862 7.23864H64.448V12.3984C64.448 12.6044 64.4788 12.7595 64.5403 12.8636C64.6019 12.9654 64.6812 13.0353 64.7782 13.0732C64.8777 13.1087 64.9854 13.1264 65.1014 13.1264C65.1866 13.1264 65.2612 13.1205 65.3251 13.1087C65.389 13.0968 65.4387 13.0874 65.4743 13.0803L65.666 13.9574C65.6045 13.9811 65.5169 14.0047 65.4032 14.0284C65.2896 14.0545 65.1475 14.0687 64.9771 14.071C64.6977 14.0758 64.4373 14.026 64.1958 13.9219C63.9544 13.8177 63.7591 13.6567 63.6099 13.4389C63.4608 13.2211 63.3862 12.9477 63.3862 12.6186V7.23864ZM66.7411 14V8.54545H67.8029V14H66.7411ZM67.2773 7.70384C67.0927 7.70384 66.9341 7.64228 66.8015 7.51918C66.6713 7.3937 66.6062 7.24455 66.6062 7.07173C66.6062 6.89654 66.6713 6.7474 66.8015 6.62429C66.9341 6.49882 67.0927 6.43608 67.2773 6.43608C67.462 6.43608 67.6194 6.49882 67.7496 6.62429C67.8822 6.7474 67.9485 6.89654 67.9485 7.07173C67.9485 7.24455 67.8822 7.3937 67.7496 7.51918C67.6194 7.64228 67.462 7.70384 67.2773 7.70384ZM73.8975 8.54545L71.9196 14H70.7832L68.8017 8.54545H69.9416L71.323 12.7429H71.3798L72.7576 8.54545H73.8975ZM77.0075 14.1101C76.4961 14.1101 76.0498 13.9929 75.6687 13.7585C75.2875 13.5241 74.9916 13.1963 74.7809 12.7749C74.5702 12.3535 74.4648 11.861 74.4648 11.2976C74.4648 10.7318 74.5702 10.237 74.7809 9.81321C74.9916 9.38944 75.2875 9.06037 75.6687 8.82599C76.0498 8.59162 76.4961 8.47443 77.0075 8.47443C77.5188 8.47443 77.9651 8.59162 78.3462 8.82599C78.7274 9.06037 79.0233 9.38944 79.234 9.81321C79.4447 10.237 79.5501 10.7318 79.5501 11.2976C79.5501 11.861 79.4447 12.3535 79.234 12.7749C79.0233 13.1963 78.7274 13.5241 78.3462 13.7585C77.9651 13.9929 77.5188 14.1101 77.0075 14.1101ZM77.011 13.2188C77.3424 13.2188 77.6171 13.1312 77.8349 12.956C78.0527 12.7808 78.2137 12.5476 78.3178 12.2564C78.4244 11.9652 78.4776 11.6444 78.4776 11.294C78.4776 10.946 78.4244 10.6264 78.3178 10.3352C78.2137 10.0417 78.0527 9.80611 77.8349 9.62855C77.6171 9.45099 77.3424 9.36222 77.011 9.36222C76.6772 9.36222 76.4002 9.45099 76.18 9.62855C75.9622 9.80611 75.8001 10.0417 75.6935 10.3352C75.5894 10.6264 75.5373 10.946 75.5373 11.294C75.5373 11.6444 75.5894 11.9652 75.6935 12.2564C75.8001 12.5476 75.9622 12.7808 76.18 12.956C76.4002 13.1312 76.6772 13.2188 77.011 13.2188Z" fill="#FFC200"/>
</svg>
