<svg width="33" height="28" viewBox="0 0 33 28" fill="none" xmlns="http://www.w3.org/2000/svg">
<path d="M18.5465 1.34071L31.8785 24.4316C32.0818 24.7837 32.1888 25.1831 32.1888 25.5897C32.1888 25.9963 32.0818 26.3957 31.8785 26.7478C31.6753 27.0999 31.3829 27.3923 31.0308 27.5956C30.6787 27.7988 30.2793 27.9059 29.8727 27.9059H3.20871C2.80214 27.9059 2.40273 27.7988 2.05064 27.5956C1.69854 27.3923 1.40616 27.0999 1.20287 26.7478C0.999593 26.3957 0.892576 25.9963 0.892578 25.5897C0.892581 25.1831 0.999603 24.7837 1.20289 24.4316L14.5349 1.34071C15.4258 -0.203415 17.654 -0.203415 18.5465 1.34071ZM16.5407 19.6417C16.1312 19.6417 15.7384 19.8044 15.4488 20.094C15.1593 20.3836 14.9966 20.7763 14.9966 21.1858C14.9966 21.5954 15.1593 21.9881 15.4488 22.2777C15.7384 22.5673 16.1312 22.73 16.5407 22.73C16.9502 22.73 17.343 22.5673 17.6326 22.2777C17.9222 21.9881 18.0848 21.5954 18.0848 21.1858C18.0848 20.7763 17.9222 20.3836 17.6326 20.094C17.343 19.8044 16.9502 19.6417 16.5407 19.6417ZM16.5407 8.83282C16.1625 8.83287 15.7975 8.97173 15.5148 9.22305C15.2322 9.47437 15.0516 9.82068 15.0074 10.1963L14.9966 10.377V16.5535C14.997 16.947 15.1477 17.3256 15.4179 17.6118C15.6881 17.8979 16.0573 18.0702 16.4502 18.0932C16.8431 18.1163 17.23 17.9885 17.5318 17.7359C17.8336 17.4833 18.0275 17.1249 18.074 16.7341L18.0848 16.5535V10.377C18.0848 9.96742 17.9222 9.57467 17.6326 9.28509C17.343 8.99551 16.9502 8.83282 16.5407 8.83282Z" fill="#FFD54F"/>
</svg>
