<svg width="23" height="24" viewBox="0 0 23 24" fill="none" xmlns="http://www.w3.org/2000/svg">
<path fill-rule="evenodd" clip-rule="evenodd" d="M21.3771 3.38906C22.0445 4.7168 22.0445 6.45495 22.0445 9.93122V13.2815C22.0445 13.6286 22.0445 13.8022 22.0376 13.9488C21.8883 17.1461 19.3649 19.704 16.2106 19.8554C16.0659 19.8623 15.8749 19.8623 15.4929 19.8623L15.3948 19.8624C14.1453 19.8705 12.9282 20.2659 11.9068 20.9954L11.8418 21.0423L8.6445 23.3573C7.54841 24.1509 6.10808 23.0047 6.60834 21.7372C6.9627 20.8392 6.31026 19.8623 5.3561 19.8623H4.61913C2.06806 19.8623 0 17.766 0 15.1802V9.93122C0 6.45495 -1.35926e-07 4.7168 0.667414 3.38906C1.25449 2.22114 2.19127 1.27161 3.34348 0.676515C4.65336 -2.71851e-07 6.3681 0 9.79757 0H12.247C15.6765 0 17.3912 -2.71851e-07 18.701 0.676515C19.8533 1.27161 20.79 2.22114 21.3771 3.38906ZM6.29844 12.5969C7.16806 12.5969 7.87305 11.8919 7.87305 11.0223C7.87305 10.1526 7.16806 9.44766 6.29844 9.44766C5.42881 9.44766 4.72383 10.1526 4.72383 11.0223C4.72383 11.8919 5.42881 12.5969 6.29844 12.5969ZM12.5969 11.0223C12.5969 11.8919 11.8919 12.5969 11.0223 12.5969C10.1526 12.5969 9.44766 11.8919 9.44766 11.0223C9.44766 10.1526 10.1526 9.44766 11.0223 9.44766C11.8919 9.44766 12.5969 10.1526 12.5969 11.0223ZM15.7461 12.5969C16.6157 12.5969 17.3207 11.8919 17.3207 11.0223C17.3207 10.1526 16.6157 9.44766 15.7461 9.44766C14.8764 9.44766 14.1715 10.1526 14.1715 11.0223C14.1715 11.8919 14.8764 12.5969 15.7461 12.5969Z" fill="white"/>
</svg>
