<svg width="29" height="29" viewBox="0 0 29 29" fill="none" xmlns="http://www.w3.org/2000/svg">
<path d="M14.5148 17.9199C12.5761 17.9199 11.0078 16.4094 11.0078 14.5124C11.0078 12.6153 12.5761 11.0928 14.5148 11.0928C16.4536 11.0928 17.9848 12.6153 17.9848 14.5124C17.9848 16.4094 16.4536 17.9199 14.5148 17.9199Z" fill="white"/>
<path opacity="0.4" d="M25.6527 17.3641C25.4181 17.0016 25.0847 16.6391 24.6525 16.4095C24.3067 16.2403 24.0845 15.9624 23.8869 15.6362C23.2571 14.597 23.6276 13.2316 24.6772 12.6153C25.9121 11.9266 26.3072 10.392 25.591 9.19574L24.7636 7.76991C24.0598 6.57366 22.5162 6.15074 21.2937 6.85158C20.207 7.43158 18.8116 7.04491 18.1818 6.01783C17.9842 5.67949 17.8731 5.31699 17.8978 4.95449C17.9348 4.48324 17.7867 4.03616 17.5644 3.67366C17.1075 2.92449 16.2801 2.41699 15.3663 2.41699H13.6252C12.7237 2.44116 11.8964 2.92449 11.4395 3.67366C11.2048 4.03616 11.069 4.48324 11.0937 4.95449C11.1184 5.31699 11.0072 5.67949 10.8097 6.01783C10.1799 7.04491 8.78449 7.43158 7.71016 6.85158C6.47529 6.15074 4.94406 6.57366 4.22784 7.76991L3.40048 9.19574C2.69661 10.392 3.09176 11.9266 4.31428 12.6153C5.36391 13.2316 5.73437 14.597 5.11694 15.6362C4.90701 15.9624 4.68474 16.2403 4.33898 16.4095C3.91912 16.6391 3.54866 17.0016 3.35108 17.3641C2.89418 18.1132 2.91888 19.0557 3.37578 19.8412L4.22784 21.2912C4.68474 22.0645 5.5368 22.5478 6.4259 22.5478C6.84575 22.5478 7.3397 22.427 7.73486 22.1853C8.04357 21.9799 8.41403 21.9074 8.82154 21.9074C10.0441 21.9074 11.069 22.9103 11.0937 24.1066C11.0937 25.4962 12.2298 26.5837 13.6622 26.5837H15.3416C16.7617 26.5837 17.8978 25.4962 17.8978 24.1066C17.9348 22.9103 18.9598 21.9074 20.1823 21.9074C20.5775 21.9074 20.9479 21.9799 21.269 22.1853C21.6641 22.427 22.1457 22.5478 22.5779 22.5478C23.4547 22.5478 24.3067 22.0645 24.7636 21.2912L25.6281 19.8412C26.0726 19.0316 26.1096 18.1132 25.6527 17.3641Z" fill="white"/>
</svg>
