<svg width="27" height="27" viewBox="0 0 27 27" fill="none" xmlns="http://www.w3.org/2000/svg">
<path opacity="0.4" d="M18.0863 2.25H21.8955C23.4731 2.25 24.7514 3.53908 24.7514 5.12996V8.97134C24.7514 10.5622 23.4731 11.8513 21.8955 11.8513H18.0863C16.5088 11.8513 15.2305 10.5622 15.2305 8.97134V5.12996C15.2305 3.53908 16.5088 2.25 18.0863 2.25Z" fill="white"/>
<path d="M8.91602 15.1494C10.4936 15.1494 11.7725 16.4384 11.7725 18.0293V21.8711C11.7722 23.4607 10.4934 24.751 8.91602 24.751H5.10742C3.53003 24.751 2.25124 23.4607 2.25098 21.8711V18.0293C2.25098 16.4384 3.52987 15.1494 5.10742 15.1494H8.91602ZM21.8955 15.1494C23.4731 15.1494 24.752 16.4384 24.752 18.0293V21.8711C24.7517 23.4607 23.4729 24.751 21.8955 24.751H18.0869C16.5095 24.751 15.2307 23.4607 15.2305 21.8711V18.0293C15.2305 16.4384 16.5094 15.1494 18.0869 15.1494H21.8955ZM8.91602 2.25C10.4936 2.25 11.7725 3.53998 11.7725 5.13086V8.97168C11.7725 10.5626 10.4936 11.8516 8.91602 11.8516H5.10742C3.52987 11.8516 2.25098 10.5626 2.25098 8.97168V5.13086C2.25098 3.53998 3.52987 2.25 5.10742 2.25H8.91602Z" fill="white"/>
</svg>
