<svg width="64" height="19" viewBox="0 0 64 19" fill="none" xmlns="http://www.w3.org/2000/svg">
<rect width="64" height="19" rx="9.5" fill="#D74F51" fill-opacity="0.3"/>
<circle cx="10" cy="10" r="3" fill="#E53935"/>
<path d="M24.8963 6.72727V14H23.799V6.72727H24.8963ZM27.4709 10.7614V14H26.4091V8.54545H27.4283V9.43324H27.4957C27.6212 9.14441 27.8177 8.91241 28.0852 8.73722C28.3551 8.56203 28.6948 8.47443 29.1044 8.47443C29.4761 8.47443 29.8016 8.55256 30.081 8.70881C30.3603 8.86269 30.5769 9.09233 30.7308 9.39773C30.8847 9.70312 30.9616 10.0807 30.9616 10.5305V14H29.8999V10.6584C29.8999 10.263 29.7969 9.95407 29.5909 9.73153C29.3849 9.50663 29.102 9.39418 28.7422 9.39418C28.496 9.39418 28.277 9.44744 28.0852 9.55398C27.8958 9.66051 27.7455 9.81676 27.6342 10.0227C27.5253 10.2263 27.4709 10.4725 27.4709 10.7614ZM33.973 14.1207C33.6274 14.1207 33.3149 14.0568 33.0355 13.929C32.7562 13.7988 32.5348 13.6106 32.3714 13.3643C32.2105 13.1181 32.13 12.8163 32.13 12.4588C32.13 12.151 32.1892 11.8977 32.3075 11.6989C32.4259 11.5 32.5857 11.3426 32.7869 11.2266C32.9882 11.1106 33.2131 11.023 33.4616 10.9638C33.7102 10.9046 33.9635 10.8596 34.2216 10.8288C34.5483 10.791 34.8134 10.7602 35.017 10.7365C35.2206 10.7105 35.3686 10.669 35.4609 10.6122C35.5533 10.5554 35.5994 10.4631 35.5994 10.3352V10.3104C35.5994 10.0002 35.5118 9.75994 35.3366 9.58949C35.1638 9.41903 34.9058 9.33381 34.5625 9.33381C34.205 9.33381 33.9233 9.41312 33.7173 9.57173C33.5137 9.72798 33.3729 9.90199 33.2947 10.0938L32.2969 9.86648C32.4152 9.53504 32.5881 9.26752 32.8153 9.06392C33.045 8.85795 33.3089 8.70881 33.6072 8.61648C33.9055 8.52178 34.2192 8.47443 34.5483 8.47443C34.7661 8.47443 34.9969 8.50047 35.2408 8.55256C35.487 8.60227 35.7166 8.6946 35.9297 8.82955C36.1451 8.96449 36.3215 9.15743 36.4588 9.40838C36.5961 9.65696 36.6648 9.98011 36.6648 10.3778V14H35.6278V13.2543H35.5852C35.5166 13.3916 35.4136 13.5265 35.2763 13.6591C35.139 13.7917 34.9626 13.9018 34.7472 13.9893C34.5317 14.0769 34.2737 14.1207 33.973 14.1207ZM34.2038 13.2685C34.4974 13.2685 34.7483 13.2105 34.9567 13.0945C35.1674 12.9785 35.3272 12.8269 35.4361 12.6399C35.5473 12.4505 35.603 12.2481 35.603 12.0327V11.3295C35.5651 11.3674 35.4917 11.4029 35.3828 11.4361C35.2763 11.4669 35.1544 11.4941 35.017 11.5178C34.8797 11.5391 34.746 11.5592 34.6158 11.5781C34.4856 11.5947 34.3767 11.6089 34.2891 11.6207C34.0831 11.6468 33.8949 11.6906 33.7244 11.7521C33.5563 11.8137 33.4214 11.9025 33.3196 12.0185C33.2202 12.1321 33.1705 12.2836 33.1705 12.473C33.1705 12.7358 33.2675 12.9347 33.4616 13.0696C33.6558 13.2022 33.9032 13.2685 34.2038 13.2685ZM40.6252 8.54545V9.39773H37.6458V8.54545H40.6252ZM38.4448 7.23864H39.5066V12.3984C39.5066 12.6044 39.5373 12.7595 39.5989 12.8636C39.6605 12.9654 39.7398 13.0353 39.8368 13.0732C39.9363 13.1087 40.044 13.1264 40.16 13.1264C40.2452 13.1264 40.3198 13.1205 40.3837 13.1087C40.4476 13.0968 40.4973 13.0874 40.5328 13.0803L40.7246 13.9574C40.6631 13.9811 40.5755 14.0047 40.4618 14.0284C40.3482 14.0545 40.2061 14.0687 40.0357 14.071C39.7563 14.0758 39.4959 14.026 39.2544 13.9219C39.013 13.8177 38.8176 13.6567 38.6685 13.4389C38.5194 13.2211 38.4448 12.9477 38.4448 12.6186V7.23864ZM41.7997 14V8.54545H42.8615V14H41.7997ZM42.3359 7.70384C42.1513 7.70384 41.9927 7.64228 41.8601 7.51918C41.7299 7.3937 41.6648 7.24455 41.6648 7.07173C41.6648 6.89654 41.7299 6.7474 41.8601 6.62429C41.9927 6.49882 42.1513 6.43608 42.3359 6.43608C42.5206 6.43608 42.678 6.49882 42.8082 6.62429C42.9408 6.7474 43.0071 6.89654 43.0071 7.07173C43.0071 7.24455 42.9408 7.3937 42.8082 7.51918C42.678 7.64228 42.5206 7.70384 42.3359 7.70384ZM48.9561 8.54545L46.9782 14H45.8418L43.8603 8.54545H45.0002L46.3816 12.7429H46.4384L47.8162 8.54545H48.9561ZM52.0661 14.1101C51.5547 14.1101 51.1084 13.9929 50.7273 13.7585C50.3461 13.5241 50.0502 13.1963 49.8395 12.7749C49.6288 12.3535 49.5234 11.861 49.5234 11.2976C49.5234 10.7318 49.6288 10.237 49.8395 9.81321C50.0502 9.38944 50.3461 9.06037 50.7273 8.82599C51.1084 8.59162 51.5547 8.47443 52.0661 8.47443C52.5774 8.47443 53.0237 8.59162 53.4048 8.82599C53.786 9.06037 54.0819 9.38944 54.2926 9.81321C54.5033 10.237 54.6087 10.7318 54.6087 11.2976C54.6087 11.861 54.5033 12.3535 54.2926 12.7749C54.0819 13.1963 53.786 13.5241 53.4048 13.7585C53.0237 13.9929 52.5774 14.1101 52.0661 14.1101ZM52.0696 13.2188C52.401 13.2188 52.6757 13.1312 52.8935 12.956C53.1113 12.7808 53.2723 12.5476 53.3764 12.2564C53.483 11.9652 53.5362 11.6444 53.5362 11.294C53.5362 10.946 53.483 10.6264 53.3764 10.3352C53.2723 10.0417 53.1113 9.80611 52.8935 9.62855C52.6757 9.45099 52.401 9.36222 52.0696 9.36222C51.7358 9.36222 51.4588 9.45099 51.2386 9.62855C51.0208 9.80611 50.8587 10.0417 50.7521 10.3352C50.648 10.6264 50.5959 10.946 50.5959 11.294C50.5959 11.6444 50.648 11.9652 50.7521 12.2564C50.8587 12.5476 51.0208 12.7808 51.2386 12.956C51.4588 13.1312 51.7358 13.2188 52.0696 13.2188Z" fill="#E53935"/>
</svg>
