<svg xmlns="http://www.w3.org/2000/svg" xmlns:xlink="http://www.w3.org/1999/xlink" width="367" zoomAndPan="magnify" viewBox="0 0 275.25 179.999997" height="240" preserveAspectRatio="xMidYMid meet" version="1.2"><defs><clipPath id="8bc2799131"><path d="M 107 37 L 139 37 L 139 68 L 107 68 Z M 107 37 "/></clipPath><clipPath id="01ce6b0ed5"><path d="M 149.246094 60.109375 L 130.738281 78.621094 L 96.886719 44.769531 L 115.398438 26.261719 Z M 149.246094 60.109375 "/></clipPath><clipPath id="3966d237df"><path d="M 130.664062 78.695312 L 149.171875 60.183594 L 115.324219 26.335938 L 96.8125 44.847656 Z M 130.664062 78.695312 "/></clipPath><clipPath id="c6593c6270"><path d="M 140.417969 2.464844 L 166.59375 2.464844 L 166.59375 68 L 140.417969 68 Z M 140.417969 2.464844 "/></clipPath><clipPath id="f0d6ef6d00"><path d="M 107.019531 4.765625 L 137.515625 4.765625 L 137.515625 35.265625 L 107.019531 35.265625 Z M 107.019531 4.765625 "/></clipPath><clipPath id="028e505376"><path d="M 122.265625 4.765625 C 113.84375 4.765625 107.019531 11.59375 107.019531 20.015625 C 107.019531 28.4375 113.84375 35.265625 122.265625 35.265625 C 130.6875 35.265625 137.515625 28.4375 137.515625 20.015625 C 137.515625 11.59375 130.6875 4.765625 122.265625 4.765625 Z M 122.265625 4.765625 "/></clipPath></defs><g id="16aa8b522b"><g clip-rule="nonzero" clip-path="url(#8bc2799131)"><g clip-rule="nonzero" clip-path="url(#01ce6b0ed5)"><g clip-rule="nonzero" clip-path="url(#3966d237df)"><path style=" stroke:none;fill-rule:nonzero;fill:#127234;fill-opacity:1;" d="M 130.769531 44.75 C 122.320312 36.296875 107.761719 37.15625 107.761719 37.15625 C 107.761719 37.15625 106.722656 51.894531 115.175781 60.34375 C 123.625 68.796875 138.363281 67.761719 138.363281 67.761719 C 138.363281 67.761719 139.222656 53.203125 130.769531 44.75 "/></g></g></g><g clip-rule="nonzero" clip-path="url(#c6593c6270)"><path style=" stroke:none;fill-rule:nonzero;fill:#4caf50;fill-opacity:1;" d="M 140.417969 67.902344 L 140.417969 28.660156 C 140.417969 14.199219 152.136719 2.480469 166.597656 2.480469 L 166.597656 41.722656 C 166.597656 56.179688 154.875 67.902344 140.417969 67.902344 Z M 140.417969 67.902344 "/></g><g clip-rule="nonzero" clip-path="url(#f0d6ef6d00)"><g clip-rule="nonzero" clip-path="url(#028e505376)"><path style=" stroke:none;fill-rule:nonzero;fill:#ffff00;fill-opacity:1;" d="M 107.019531 4.765625 L 137.515625 4.765625 L 137.515625 35.265625 L 107.019531 35.265625 Z M 107.019531 4.765625 "/></g></g><g style="fill:#004809;fill-opacity:1;"><g transform="translate(1.203172, 110.723698)"><path style="stroke:none" d="M 17.15625 0.671875 C 14.332031 0.671875 11.84375 0.0625 9.6875 -1.15625 C 7.53125 -2.382812 5.832031 -4.09375 4.59375 -6.28125 C 3.351562 -8.476562 2.734375 -10.988281 2.734375 -13.8125 C 2.734375 -16.632812 3.351562 -19.140625 4.59375 -21.328125 C 5.832031 -23.515625 7.53125 -25.222656 9.6875 -26.453125 C 11.84375 -27.679688 14.332031 -28.296875 17.15625 -28.296875 C 20.675781 -28.296875 23.644531 -27.375 26.0625 -25.53125 C 28.476562 -23.695312 30.019531 -21.164062 30.6875 -17.9375 L 23.171875 -17.9375 C 22.796875 -19.269531 22.0625 -20.316406 20.96875 -21.078125 C 19.875 -21.835938 18.582031 -22.21875 17.09375 -22.21875 C 15.125 -22.21875 13.453125 -21.472656 12.078125 -19.984375 C 10.710938 -18.503906 10.03125 -16.445312 10.03125 -13.8125 C 10.03125 -11.175781 10.710938 -9.113281 12.078125 -7.625 C 13.453125 -6.144531 15.125 -5.40625 17.09375 -5.40625 C 18.582031 -5.40625 19.875 -5.773438 20.96875 -6.515625 C 22.0625 -7.253906 22.796875 -8.3125 23.171875 -9.6875 L 30.6875 -9.6875 C 30.019531 -6.570312 28.476562 -4.066406 26.0625 -2.171875 C 23.644531 -0.273438 20.675781 0.671875 17.15625 0.671875 Z M 17.15625 0.671875 "/></g></g><g style="fill:#004809;fill-opacity:1;"><g transform="translate(31.047027, 110.723698)"><path style="stroke:none" d="M 13.140625 0.671875 C 10.765625 0.671875 8.816406 0.289062 7.296875 -0.46875 C 5.773438 -1.226562 4.640625 -2.238281 3.890625 -3.5 C 3.148438 -4.769531 2.78125 -6.164062 2.78125 -7.6875 C 2.78125 -10.25 3.78125 -12.328125 5.78125 -13.921875 C 7.789062 -15.515625 10.800781 -16.3125 14.8125 -16.3125 L 21.828125 -16.3125 L 21.828125 -16.984375 C 21.828125 -18.878906 21.285156 -20.269531 20.203125 -21.15625 C 19.128906 -22.050781 17.796875 -22.5 16.203125 -22.5 C 14.753906 -22.5 13.488281 -22.15625 12.40625 -21.46875 C 11.332031 -20.78125 10.664062 -19.769531 10.40625 -18.4375 L 3.453125 -18.4375 C 3.640625 -20.4375 4.316406 -22.175781 5.484375 -23.65625 C 6.648438 -25.144531 8.160156 -26.289062 10.015625 -27.09375 C 11.878906 -27.894531 13.960938 -28.296875 16.265625 -28.296875 C 20.191406 -28.296875 23.285156 -27.3125 25.546875 -25.34375 C 27.816406 -23.375 28.953125 -20.585938 28.953125 -16.984375 L 28.953125 0 L 22.890625 0 L 22.21875 -4.453125 C 21.40625 -2.972656 20.265625 -1.75 18.796875 -0.78125 C 17.328125 0.1875 15.441406 0.671875 13.140625 0.671875 Z M 14.75 -4.90625 C 16.789062 -4.90625 18.378906 -5.570312 19.515625 -6.90625 C 20.648438 -8.238281 21.363281 -9.890625 21.65625 -11.859375 L 15.59375 -11.859375 C 13.695312 -11.859375 12.335938 -11.515625 11.515625 -10.828125 C 10.703125 -10.140625 10.296875 -9.296875 10.296875 -8.296875 C 10.296875 -7.222656 10.703125 -6.390625 11.515625 -5.796875 C 12.335938 -5.203125 13.414062 -4.90625 14.75 -4.90625 Z M 14.75 -4.90625 "/></g></g><g style="fill:#004809;fill-opacity:1;"><g transform="translate(59.610238, 110.723698)"><path style="stroke:none" d="M 3.625 0 L 3.625 -27.625 L 9.90625 -27.625 L 10.53125 -23.890625 C 11.414062 -25.222656 12.59375 -26.289062 14.0625 -27.09375 C 15.53125 -27.894531 17.226562 -28.296875 19.15625 -28.296875 C 23.425781 -28.296875 26.453125 -26.640625 28.234375 -23.328125 C 29.234375 -24.847656 30.578125 -26.054688 32.265625 -26.953125 C 33.953125 -27.847656 35.800781 -28.296875 37.8125 -28.296875 C 41.414062 -28.296875 44.179688 -27.21875 46.109375 -25.0625 C 48.035156 -22.90625 49 -19.75 49 -15.59375 L 49 0 L 41.875 0 L 41.875 -14.921875 C 41.875 -17.296875 41.414062 -19.113281 40.5 -20.375 C 39.59375 -21.644531 38.195312 -22.28125 36.3125 -22.28125 C 34.375 -22.28125 32.820312 -21.570312 31.65625 -20.15625 C 30.488281 -18.75 29.90625 -16.78125 29.90625 -14.25 L 29.90625 0 L 22.78125 0 L 22.78125 -14.921875 C 22.78125 -17.296875 22.3125 -19.113281 21.375 -20.375 C 20.445312 -21.644531 19.019531 -22.28125 17.09375 -22.28125 C 15.195312 -22.28125 13.664062 -21.570312 12.5 -20.15625 C 11.332031 -18.75 10.75 -16.78125 10.75 -14.25 L 10.75 0 Z M 3.625 0 "/></g></g><g style="fill:#004809;fill-opacity:1;"><g transform="translate(108.218265, 110.723698)"><path style="stroke:none" d="M 3.625 12.25 L 3.625 -27.625 L 9.96875 -27.625 L 10.75 -23.671875 C 11.632812 -24.890625 12.8125 -25.960938 14.28125 -26.890625 C 15.75 -27.828125 17.648438 -28.296875 19.984375 -28.296875 C 22.585938 -28.296875 24.910156 -27.660156 26.953125 -26.390625 C 28.992188 -25.128906 30.609375 -23.40625 31.796875 -21.21875 C 32.984375 -19.03125 33.578125 -16.539062 33.578125 -13.75 C 33.578125 -10.96875 32.984375 -8.488281 31.796875 -6.3125 C 30.609375 -4.144531 28.992188 -2.4375 26.953125 -1.1875 C 24.910156 0.0507812 22.585938 0.671875 19.984375 0.671875 C 17.910156 0.671875 16.09375 0.28125 14.53125 -0.5 C 12.976562 -1.28125 11.71875 -2.375 10.75 -3.78125 L 10.75 12.25 Z M 18.484375 -5.5625 C 20.753906 -5.5625 22.628906 -6.320312 24.109375 -7.84375 C 25.597656 -9.375 26.34375 -11.34375 26.34375 -13.75 C 26.34375 -16.164062 25.597656 -18.148438 24.109375 -19.703125 C 22.628906 -21.265625 20.753906 -22.046875 18.484375 -22.046875 C 16.179688 -22.046875 14.296875 -21.273438 12.828125 -19.734375 C 11.367188 -18.203125 10.640625 -16.226562 10.640625 -13.8125 C 10.640625 -11.394531 11.367188 -9.414062 12.828125 -7.875 C 14.296875 -6.332031 16.179688 -5.5625 18.484375 -5.5625 Z M 18.484375 -5.5625 "/></g></g><g style="fill:#004809;fill-opacity:1;"><g transform="translate(140.957476, 110.723698)"><path style="stroke:none" d="M 16.875 0.671875 C 14.195312 0.671875 11.789062 0.0625 9.65625 -1.15625 C 7.519531 -2.382812 5.832031 -4.082031 4.59375 -6.25 C 3.351562 -8.425781 2.734375 -10.945312 2.734375 -13.8125 C 2.734375 -16.664062 3.363281 -19.175781 4.625 -21.34375 C 5.882812 -23.519531 7.582031 -25.222656 9.71875 -26.453125 C 11.851562 -27.679688 14.253906 -28.296875 16.921875 -28.296875 C 19.554688 -28.296875 21.941406 -27.679688 24.078125 -26.453125 C 26.210938 -25.222656 27.898438 -23.519531 29.140625 -21.34375 C 30.390625 -19.175781 31.015625 -16.664062 31.015625 -13.8125 C 31.015625 -10.945312 30.390625 -8.425781 29.140625 -6.25 C 27.898438 -4.082031 26.203125 -2.382812 24.046875 -1.15625 C 21.898438 0.0625 19.507812 0.671875 16.875 0.671875 Z M 16.875 -5.515625 C 18.726562 -5.515625 20.34375 -6.207031 21.71875 -7.59375 C 23.09375 -8.988281 23.78125 -11.0625 23.78125 -13.8125 C 23.78125 -16.5625 23.09375 -18.628906 21.71875 -20.015625 C 20.34375 -21.410156 18.742188 -22.109375 16.921875 -22.109375 C 15.035156 -22.109375 13.414062 -21.410156 12.0625 -20.015625 C 10.707031 -18.628906 10.03125 -16.5625 10.03125 -13.8125 C 10.03125 -11.0625 10.707031 -8.988281 12.0625 -7.59375 C 13.414062 -6.207031 15.019531 -5.515625 16.875 -5.515625 Z M 16.875 -5.515625 "/></g></g><g style="fill:#004809;fill-opacity:1;"><g transform="translate(17.038979, 158.202141)"><path style="stroke:none" d="M 7.46875 -31.90625 C 6.164062 -31.90625 5.09375 -32.296875 4.25 -33.078125 C 3.414062 -33.859375 3 -34.84375 3 -36.03125 C 3 -37.21875 3.414062 -38.191406 4.25 -38.953125 C 5.09375 -39.710938 6.164062 -40.09375 7.46875 -40.09375 C 8.757812 -40.09375 9.820312 -39.710938 10.65625 -38.953125 C 11.5 -38.191406 11.921875 -37.21875 11.921875 -36.03125 C 11.921875 -34.84375 11.5 -33.859375 10.65625 -33.078125 C 9.820312 -32.296875 8.757812 -31.90625 7.46875 -31.90625 Z M 3.890625 0 L 3.890625 -27.625 L 11.03125 -27.625 L 11.03125 0 Z M 3.890625 0 "/></g></g><g style="fill:#004809;fill-opacity:1;"><g transform="translate(28.341369, 158.202141)"><path style="stroke:none" d="M 3.625 0 L 3.625 -27.625 L 9.90625 -27.625 L 10.46875 -22.9375 C 11.320312 -24.570312 12.554688 -25.875 14.171875 -26.84375 C 15.785156 -27.8125 17.6875 -28.296875 19.875 -28.296875 C 23.289062 -28.296875 25.945312 -27.21875 27.84375 -25.0625 C 29.738281 -22.90625 30.6875 -19.75 30.6875 -15.59375 L 30.6875 0 L 23.5625 0 L 23.5625 -14.921875 C 23.5625 -17.296875 23.078125 -19.113281 22.109375 -20.375 C 21.140625 -21.644531 19.632812 -22.28125 17.59375 -22.28125 C 15.59375 -22.28125 13.953125 -21.570312 12.671875 -20.15625 C 11.390625 -18.75 10.75 -16.78125 10.75 -14.25 L 10.75 0 Z M 3.625 0 "/></g></g><g style="fill:#004809;fill-opacity:1;"><g transform="translate(58.630661, 158.202141)"><path style="stroke:none" d="M 15.921875 0 C 13.023438 0 10.703125 -0.703125 8.953125 -2.109375 C 7.210938 -3.523438 6.34375 -6.035156 6.34375 -9.640625 L 6.34375 -21.65625 L 1.609375 -21.65625 L 1.609375 -27.625 L 6.34375 -27.625 L 7.1875 -35.03125 L 13.46875 -35.03125 L 13.46875 -27.625 L 20.9375 -27.625 L 20.9375 -21.65625 L 13.46875 -21.65625 L 13.46875 -9.578125 C 13.46875 -8.242188 13.753906 -7.320312 14.328125 -6.8125 C 14.910156 -6.3125 15.90625 -6.0625 17.3125 -6.0625 L 20.765625 -6.0625 L 20.765625 0 Z M 15.921875 0 "/></g></g><g style="fill:#004809;fill-opacity:1;"><g transform="translate(78.507782, 158.202141)"><path style="stroke:none" d="M 17.046875 0.671875 C 14.253906 0.671875 11.78125 0.078125 9.625 -1.109375 C 7.476562 -2.296875 5.789062 -3.96875 4.5625 -6.125 C 3.34375 -8.28125 2.734375 -10.769531 2.734375 -13.59375 C 2.734375 -16.445312 3.332031 -18.988281 4.53125 -21.21875 C 5.738281 -23.445312 7.410156 -25.179688 9.546875 -26.421875 C 11.679688 -27.671875 14.195312 -28.296875 17.09375 -28.296875 C 19.800781 -28.296875 22.191406 -27.695312 24.265625 -26.5 C 26.347656 -25.3125 27.972656 -23.6875 29.140625 -21.625 C 30.316406 -19.570312 30.90625 -17.28125 30.90625 -14.75 C 30.90625 -14.34375 30.894531 -13.914062 30.875 -13.46875 C 30.851562 -13.03125 30.828125 -12.566406 30.796875 -12.078125 L 9.796875 -12.078125 C 9.953125 -9.929688 10.707031 -8.242188 12.0625 -7.015625 C 13.414062 -5.785156 15.054688 -5.171875 16.984375 -5.171875 C 18.429688 -5.171875 19.644531 -5.492188 20.625 -6.140625 C 21.613281 -6.796875 22.347656 -7.644531 22.828125 -8.6875 L 30.078125 -8.6875 C 29.554688 -6.9375 28.691406 -5.347656 27.484375 -3.921875 C 26.273438 -2.492188 24.785156 -1.367188 23.015625 -0.546875 C 21.253906 0.265625 19.265625 0.671875 17.046875 0.671875 Z M 17.09375 -22.5 C 15.351562 -22.5 13.8125 -22.003906 12.46875 -21.015625 C 11.132812 -20.035156 10.28125 -18.546875 9.90625 -16.546875 L 23.671875 -16.546875 C 23.554688 -18.359375 22.882812 -19.800781 21.65625 -20.875 C 20.4375 -21.957031 18.914062 -22.5 17.09375 -22.5 Z M 17.09375 -22.5 "/></g></g><g style="fill:#004809;fill-opacity:1;"><g transform="translate(108.240278, 158.202141)"><path style="stroke:none" d="M 3.625 0 L 3.625 -40.09375 L 10.75 -40.09375 L 10.75 0 Z M 3.625 0 "/></g></g><g style="fill:#004809;fill-opacity:1;"><g transform="translate(119.09723, 158.202141)"><path style="stroke:none" d="M 7.46875 -31.90625 C 6.164062 -31.90625 5.09375 -32.296875 4.25 -33.078125 C 3.414062 -33.859375 3 -34.84375 3 -36.03125 C 3 -37.21875 3.414062 -38.191406 4.25 -38.953125 C 5.09375 -39.710938 6.164062 -40.09375 7.46875 -40.09375 C 8.757812 -40.09375 9.820312 -39.710938 10.65625 -38.953125 C 11.5 -38.191406 11.921875 -37.21875 11.921875 -36.03125 C 11.921875 -34.84375 11.5 -33.859375 10.65625 -33.078125 C 9.820312 -32.296875 8.757812 -31.90625 7.46875 -31.90625 Z M 3.890625 0 L 3.890625 -27.625 L 11.03125 -27.625 L 11.03125 0 Z M 3.890625 0 "/></g></g><g style="fill:#004809;fill-opacity:1;"><g transform="translate(130.399619, 158.202141)"><path style="stroke:none" d="M 15.3125 -8.234375 C 13.976562 -8.234375 12.734375 -8.382812 11.578125 -8.6875 L 9.515625 -6.625 C 10.148438 -6.289062 11.003906 -6.007812 12.078125 -5.78125 C 13.160156 -5.5625 14.90625 -5.34375 17.3125 -5.125 C 20.988281 -4.789062 23.660156 -3.914062 25.328125 -2.5 C 27.003906 -1.09375 27.84375 0.851562 27.84375 3.34375 C 27.84375 4.976562 27.394531 6.523438 26.5 7.984375 C 25.613281 9.453125 24.242188 10.640625 22.390625 11.546875 C 20.535156 12.460938 18.160156 12.921875 15.265625 12.921875 C 11.328125 12.921875 8.148438 12.1875 5.734375 10.71875 C 3.316406 9.25 2.109375 7.050781 2.109375 4.125 C 2.109375 1.632812 3.316406 -0.519531 5.734375 -2.34375 C 4.992188 -2.675781 4.351562 -3.023438 3.8125 -3.390625 C 3.269531 -3.765625 2.796875 -4.15625 2.390625 -4.5625 L 2.390625 -5.84375 L 7.234375 -10.96875 C 5.085938 -12.863281 4.015625 -15.296875 4.015625 -18.265625 C 4.015625 -20.117188 4.46875 -21.804688 5.375 -23.328125 C 6.28125 -24.847656 7.566406 -26.054688 9.234375 -26.953125 C 10.910156 -27.847656 12.9375 -28.296875 15.3125 -28.296875 C 16.875 -28.296875 18.320312 -28.070312 19.65625 -27.625 L 30.125 -27.625 L 30.125 -23.28125 L 25.390625 -22.9375 C 26.128906 -21.53125 26.5 -19.972656 26.5 -18.265625 C 26.5 -16.410156 26.050781 -14.722656 25.15625 -13.203125 C 24.269531 -11.679688 22.984375 -10.472656 21.296875 -9.578125 C 19.609375 -8.679688 17.613281 -8.234375 15.3125 -8.234375 Z M 15.3125 -13.703125 C 16.757812 -13.703125 17.957031 -14.085938 18.90625 -14.859375 C 19.851562 -15.640625 20.328125 -16.753906 20.328125 -18.203125 C 20.328125 -19.648438 19.851562 -20.765625 18.90625 -21.546875 C 17.957031 -22.328125 16.757812 -22.71875 15.3125 -22.71875 C 13.789062 -22.71875 12.566406 -22.328125 11.640625 -21.546875 C 10.710938 -20.765625 10.25 -19.648438 10.25 -18.203125 C 10.25 -16.753906 10.710938 -15.640625 11.640625 -14.859375 C 12.566406 -14.085938 13.789062 -13.703125 15.3125 -13.703125 Z M 8.625 3.390625 C 8.625 4.765625 9.265625 5.796875 10.546875 6.484375 C 11.828125 7.171875 13.398438 7.515625 15.265625 7.515625 C 17.046875 7.515625 18.488281 7.148438 19.59375 6.421875 C 20.707031 5.703125 21.265625 4.734375 21.265625 3.515625 C 21.265625 2.503906 20.898438 1.664062 20.171875 1 C 19.453125 0.332031 18.019531 -0.0703125 15.875 -0.21875 C 14.351562 -0.332031 12.941406 -0.5 11.640625 -0.71875 C 10.566406 -0.125 9.796875 0.519531 9.328125 1.21875 C 8.859375 1.925781 8.625 2.648438 8.625 3.390625 Z M 8.625 3.390625 "/></g></g><g style="fill:#004809;fill-opacity:1;"><g transform="translate(158.517392, 158.202141)"><path style="stroke:none" d="M 17.046875 0.671875 C 14.253906 0.671875 11.78125 0.078125 9.625 -1.109375 C 7.476562 -2.296875 5.789062 -3.96875 4.5625 -6.125 C 3.34375 -8.28125 2.734375 -10.769531 2.734375 -13.59375 C 2.734375 -16.445312 3.332031 -18.988281 4.53125 -21.21875 C 5.738281 -23.445312 7.410156 -25.179688 9.546875 -26.421875 C 11.679688 -27.671875 14.195312 -28.296875 17.09375 -28.296875 C 19.800781 -28.296875 22.191406 -27.695312 24.265625 -26.5 C 26.347656 -25.3125 27.972656 -23.6875 29.140625 -21.625 C 30.316406 -19.570312 30.90625 -17.28125 30.90625 -14.75 C 30.90625 -14.34375 30.894531 -13.914062 30.875 -13.46875 C 30.851562 -13.03125 30.828125 -12.566406 30.796875 -12.078125 L 9.796875 -12.078125 C 9.953125 -9.929688 10.707031 -8.242188 12.0625 -7.015625 C 13.414062 -5.785156 15.054688 -5.171875 16.984375 -5.171875 C 18.429688 -5.171875 19.644531 -5.492188 20.625 -6.140625 C 21.613281 -6.796875 22.347656 -7.644531 22.828125 -8.6875 L 30.078125 -8.6875 C 29.554688 -6.9375 28.691406 -5.347656 27.484375 -3.921875 C 26.273438 -2.492188 24.785156 -1.367188 23.015625 -0.546875 C 21.253906 0.265625 19.265625 0.671875 17.046875 0.671875 Z M 17.09375 -22.5 C 15.351562 -22.5 13.8125 -22.003906 12.46875 -21.015625 C 11.132812 -20.035156 10.28125 -18.546875 9.90625 -16.546875 L 23.671875 -16.546875 C 23.554688 -18.359375 22.882812 -19.800781 21.65625 -20.875 C 20.4375 -21.957031 18.914062 -22.5 17.09375 -22.5 Z M 17.09375 -22.5 "/></g></g><g style="fill:#004809;fill-opacity:1;"><g transform="translate(188.249887, 158.202141)"><path style="stroke:none" d="M 3.625 0 L 3.625 -27.625 L 9.90625 -27.625 L 10.46875 -22.9375 C 11.320312 -24.570312 12.554688 -25.875 14.171875 -26.84375 C 15.785156 -27.8125 17.6875 -28.296875 19.875 -28.296875 C 23.289062 -28.296875 25.945312 -27.21875 27.84375 -25.0625 C 29.738281 -22.90625 30.6875 -19.75 30.6875 -15.59375 L 30.6875 0 L 23.5625 0 L 23.5625 -14.921875 C 23.5625 -17.296875 23.078125 -19.113281 22.109375 -20.375 C 21.140625 -21.644531 19.632812 -22.28125 17.59375 -22.28125 C 15.59375 -22.28125 13.953125 -21.570312 12.671875 -20.15625 C 11.390625 -18.75 10.75 -16.78125 10.75 -14.25 L 10.75 0 Z M 3.625 0 "/></g></g><g style="fill:#004809;fill-opacity:1;"><g transform="translate(218.539191, 158.202141)"><path style="stroke:none" d="M 15.921875 0 C 13.023438 0 10.703125 -0.703125 8.953125 -2.109375 C 7.210938 -3.523438 6.34375 -6.035156 6.34375 -9.640625 L 6.34375 -21.65625 L 1.609375 -21.65625 L 1.609375 -27.625 L 6.34375 -27.625 L 7.1875 -35.03125 L 13.46875 -35.03125 L 13.46875 -27.625 L 20.9375 -27.625 L 20.9375 -21.65625 L 13.46875 -21.65625 L 13.46875 -9.578125 C 13.46875 -8.242188 13.753906 -7.320312 14.328125 -6.8125 C 14.910156 -6.3125 15.90625 -6.0625 17.3125 -6.0625 L 20.765625 -6.0625 L 20.765625 0 Z M 15.921875 0 "/></g></g><g style="fill:#004809;fill-opacity:1;"><g transform="translate(238.4163, 158.202141)"><path style="stroke:none" d="M 17.046875 0.671875 C 14.253906 0.671875 11.78125 0.078125 9.625 -1.109375 C 7.476562 -2.296875 5.789062 -3.96875 4.5625 -6.125 C 3.34375 -8.28125 2.734375 -10.769531 2.734375 -13.59375 C 2.734375 -16.445312 3.332031 -18.988281 4.53125 -21.21875 C 5.738281 -23.445312 7.410156 -25.179688 9.546875 -26.421875 C 11.679688 -27.671875 14.195312 -28.296875 17.09375 -28.296875 C 19.800781 -28.296875 22.191406 -27.695312 24.265625 -26.5 C 26.347656 -25.3125 27.972656 -23.6875 29.140625 -21.625 C 30.316406 -19.570312 30.90625 -17.28125 30.90625 -14.75 C 30.90625 -14.34375 30.894531 -13.914062 30.875 -13.46875 C 30.851562 -13.03125 30.828125 -12.566406 30.796875 -12.078125 L 9.796875 -12.078125 C 9.953125 -9.929688 10.707031 -8.242188 12.0625 -7.015625 C 13.414062 -5.785156 15.054688 -5.171875 16.984375 -5.171875 C 18.429688 -5.171875 19.644531 -5.492188 20.625 -6.140625 C 21.613281 -6.796875 22.347656 -7.644531 22.828125 -8.6875 L 30.078125 -8.6875 C 29.554688 -6.9375 28.691406 -5.347656 27.484375 -3.921875 C 26.273438 -2.492188 24.785156 -1.367188 23.015625 -0.546875 C 21.253906 0.265625 19.265625 0.671875 17.046875 0.671875 Z M 17.09375 -22.5 C 15.351562 -22.5 13.8125 -22.003906 12.46875 -21.015625 C 11.132812 -20.035156 10.28125 -18.546875 9.90625 -16.546875 L 23.671875 -16.546875 C 23.554688 -18.359375 22.882812 -19.800781 21.65625 -20.875 C 20.4375 -21.957031 18.914062 -22.5 17.09375 -22.5 Z M 17.09375 -22.5 "/></g></g><g style="fill:#004809;fill-opacity:1;"><g transform="translate(160.563905, 172.574991)"><path style="stroke:none" d="M 5.75 -3.75 L 2.203125 -3.75 L 2.203125 0 L 1.109375 0 L 1.109375 -8.515625 L 6.34375 -8.515625 L 6.34375 -7.578125 L 2.203125 -7.578125 L 2.203125 -4.671875 L 5.75 -4.671875 Z M 5.75 -3.75 "/></g></g><g style="fill:#004809;fill-opacity:1;"><g transform="translate(169.52864, 172.574991)"><path style="stroke:none" d="M 6.546875 -3.765625 C 6.546875 -3.460938 6.519531 -3.15625 6.46875 -2.84375 C 6.425781 -2.53125 6.351562 -2.226562 6.25 -1.9375 C 6.144531 -1.65625 6.015625 -1.390625 5.859375 -1.140625 C 5.703125 -0.890625 5.515625 -0.671875 5.296875 -0.484375 C 5.078125 -0.296875 4.828125 -0.148438 4.546875 -0.046875 C 4.265625 0.0546875 3.945312 0.109375 3.59375 0.109375 C 3.238281 0.109375 2.921875 0.0546875 2.640625 -0.046875 C 2.359375 -0.148438 2.109375 -0.296875 1.890625 -0.484375 C 1.671875 -0.671875 1.484375 -0.890625 1.328125 -1.140625 C 1.171875 -1.390625 1.039062 -1.660156 0.9375 -1.953125 C 0.832031 -2.242188 0.753906 -2.539062 0.703125 -2.84375 C 0.648438 -3.15625 0.625 -3.460938 0.625 -3.765625 L 0.625 -4.734375 C 0.625 -5.035156 0.644531 -5.34375 0.6875 -5.65625 C 0.738281 -5.96875 0.816406 -6.265625 0.921875 -6.546875 C 1.023438 -6.835938 1.15625 -7.109375 1.3125 -7.359375 C 1.46875 -7.609375 1.65625 -7.828125 1.875 -8.015625 C 2.09375 -8.203125 2.34375 -8.347656 2.625 -8.453125 C 2.914062 -8.566406 3.234375 -8.625 3.578125 -8.625 C 3.929688 -8.625 4.25 -8.566406 4.53125 -8.453125 C 4.820312 -8.347656 5.070312 -8.203125 5.28125 -8.015625 C 5.5 -7.835938 5.6875 -7.617188 5.84375 -7.359375 C 6.007812 -7.109375 6.144531 -6.835938 6.25 -6.546875 C 6.351562 -6.265625 6.425781 -5.96875 6.46875 -5.65625 C 6.519531 -5.34375 6.546875 -5.035156 6.546875 -4.734375 Z M 5.484375 -4.75 C 5.472656 -4.945312 5.457031 -5.15625 5.4375 -5.375 C 5.414062 -5.59375 5.375 -5.8125 5.3125 -6.03125 C 5.257812 -6.25 5.1875 -6.457031 5.09375 -6.65625 C 5 -6.851562 4.878906 -7.023438 4.734375 -7.171875 C 4.597656 -7.328125 4.4375 -7.445312 4.25 -7.53125 C 4.0625 -7.613281 3.835938 -7.65625 3.578125 -7.65625 C 3.328125 -7.65625 3.109375 -7.609375 2.921875 -7.515625 C 2.734375 -7.429688 2.566406 -7.3125 2.421875 -7.15625 C 2.285156 -7.007812 2.171875 -6.835938 2.078125 -6.640625 C 1.984375 -6.453125 1.90625 -6.25 1.84375 -6.03125 C 1.789062 -5.8125 1.75 -5.59375 1.71875 -5.375 C 1.695312 -5.15625 1.6875 -4.945312 1.6875 -4.75 L 1.6875 -3.765625 C 1.6875 -3.566406 1.695312 -3.351562 1.71875 -3.125 C 1.75 -2.90625 1.789062 -2.6875 1.84375 -2.46875 C 1.90625 -2.257812 1.984375 -2.050781 2.078125 -1.84375 C 2.171875 -1.644531 2.285156 -1.472656 2.421875 -1.328125 C 2.566406 -1.179688 2.734375 -1.0625 2.921875 -0.96875 C 3.117188 -0.875 3.34375 -0.828125 3.59375 -0.828125 C 3.84375 -0.828125 4.0625 -0.875 4.25 -0.96875 C 4.445312 -1.0625 4.613281 -1.179688 4.75 -1.328125 C 4.894531 -1.472656 5.007812 -1.644531 5.09375 -1.84375 C 5.1875 -2.039062 5.257812 -2.25 5.3125 -2.46875 C 5.375 -2.6875 5.414062 -2.90625 5.4375 -3.125 C 5.457031 -3.34375 5.472656 -3.554688 5.484375 -3.765625 Z M 5.484375 -4.75 "/></g></g><g style="fill:#004809;fill-opacity:1;"><g transform="translate(178.493375, 172.574991)"><path style="stroke:none" d="M 3.828125 -3.46875 L 2.140625 -3.46875 L 2.140625 0 L 1.0625 0 L 1.0625 -8.515625 L 3.546875 -8.515625 C 3.953125 -8.503906 4.328125 -8.445312 4.671875 -8.34375 C 5.023438 -8.238281 5.332031 -8.078125 5.59375 -7.859375 C 5.851562 -7.648438 6.054688 -7.382812 6.203125 -7.0625 C 6.359375 -6.75 6.4375 -6.378906 6.4375 -5.953125 C 6.4375 -5.679688 6.394531 -5.425781 6.3125 -5.1875 C 6.238281 -4.957031 6.128906 -4.75 5.984375 -4.5625 C 5.847656 -4.382812 5.679688 -4.222656 5.484375 -4.078125 C 5.296875 -3.929688 5.082031 -3.804688 4.84375 -3.703125 L 6.65625 -0.0625 L 6.640625 0 L 5.5 0 Z M 2.140625 -4.359375 L 3.578125 -4.359375 C 3.816406 -4.359375 4.046875 -4.394531 4.265625 -4.46875 C 4.484375 -4.539062 4.671875 -4.644531 4.828125 -4.78125 C 4.992188 -4.914062 5.125 -5.082031 5.21875 -5.28125 C 5.3125 -5.476562 5.359375 -5.707031 5.359375 -5.96875 C 5.359375 -6.238281 5.3125 -6.472656 5.21875 -6.671875 C 5.125 -6.878906 5 -7.050781 4.84375 -7.1875 C 4.6875 -7.332031 4.492188 -7.4375 4.265625 -7.5 C 4.046875 -7.570312 3.804688 -7.613281 3.546875 -7.625 L 2.140625 -7.625 Z M 2.140625 -4.359375 "/></g></g><g style="fill:#004809;fill-opacity:1;"><g transform="translate(187.45811, 172.574991)"><path style="stroke:none" d=""/></g></g><g style="fill:#004809;fill-opacity:1;"><g transform="translate(196.422845, 172.574991)"><path style="stroke:none" d="M 1 0 L 1 -8.515625 L 3.53125 -8.515625 C 3.882812 -8.503906 4.226562 -8.453125 4.5625 -8.359375 C 4.894531 -8.273438 5.191406 -8.140625 5.453125 -7.953125 C 5.710938 -7.773438 5.921875 -7.546875 6.078125 -7.265625 C 6.234375 -6.984375 6.3125 -6.640625 6.3125 -6.234375 C 6.3125 -6.015625 6.273438 -5.8125 6.203125 -5.625 C 6.128906 -5.445312 6.035156 -5.285156 5.921875 -5.140625 C 5.804688 -4.992188 5.664062 -4.863281 5.5 -4.75 C 5.34375 -4.644531 5.175781 -4.554688 5 -4.484375 C 5.21875 -4.410156 5.421875 -4.3125 5.609375 -4.1875 C 5.804688 -4.070312 5.972656 -3.925781 6.109375 -3.75 C 6.242188 -3.570312 6.347656 -3.375 6.421875 -3.15625 C 6.503906 -2.9375 6.546875 -2.703125 6.546875 -2.453125 C 6.546875 -2.054688 6.46875 -1.707031 6.3125 -1.40625 C 6.15625 -1.101562 5.945312 -0.847656 5.6875 -0.640625 C 5.425781 -0.429688 5.125 -0.269531 4.78125 -0.15625 C 4.4375 -0.0507812 4.085938 0 3.734375 0 Z M 2.09375 -3.984375 L 2.09375 -0.921875 L 3.75 -0.921875 C 3.976562 -0.921875 4.191406 -0.957031 4.390625 -1.03125 C 4.597656 -1.101562 4.78125 -1.203125 4.9375 -1.328125 C 5.09375 -1.460938 5.21875 -1.625 5.3125 -1.8125 C 5.40625 -2 5.453125 -2.207031 5.453125 -2.4375 C 5.453125 -2.6875 5.410156 -2.898438 5.328125 -3.078125 C 5.242188 -3.265625 5.125 -3.421875 4.96875 -3.546875 C 4.820312 -3.679688 4.648438 -3.785156 4.453125 -3.859375 C 4.253906 -3.929688 4.039062 -3.972656 3.8125 -3.984375 Z M 2.09375 -4.875 L 3.59375 -4.875 C 3.800781 -4.882812 4 -4.914062 4.1875 -4.96875 C 4.382812 -5.03125 4.554688 -5.117188 4.703125 -5.234375 C 4.859375 -5.347656 4.984375 -5.488281 5.078125 -5.65625 C 5.171875 -5.832031 5.21875 -6.03125 5.21875 -6.25 C 5.21875 -6.488281 5.171875 -6.691406 5.078125 -6.859375 C 4.992188 -7.023438 4.875 -7.160156 4.71875 -7.265625 C 4.5625 -7.367188 4.382812 -7.445312 4.1875 -7.5 C 3.988281 -7.550781 3.785156 -7.578125 3.578125 -7.578125 L 2.09375 -7.578125 Z M 2.09375 -4.875 "/></g></g><g style="fill:#004809;fill-opacity:1;"><g transform="translate(205.38758, 172.574991)"><path style="stroke:none" d="M 6.359375 -8.515625 L 6.375 -2.75 C 6.363281 -2.351562 6.289062 -1.976562 6.15625 -1.625 C 6.019531 -1.28125 5.828125 -0.976562 5.578125 -0.71875 C 5.335938 -0.457031 5.046875 -0.253906 4.703125 -0.109375 C 4.367188 0.0351562 4 0.109375 3.59375 0.109375 C 3.175781 0.109375 2.796875 0.0351562 2.453125 -0.109375 C 2.117188 -0.253906 1.832031 -0.457031 1.59375 -0.71875 C 1.351562 -0.976562 1.160156 -1.28125 1.015625 -1.625 C 0.878906 -1.976562 0.8125 -2.351562 0.8125 -2.75 L 0.828125 -8.515625 L 1.859375 -8.515625 L 1.875 -2.75 C 1.875 -2.488281 1.910156 -2.242188 1.984375 -2.015625 C 2.066406 -1.785156 2.175781 -1.578125 2.3125 -1.390625 C 2.457031 -1.210938 2.632812 -1.066406 2.84375 -0.953125 C 3.0625 -0.847656 3.3125 -0.796875 3.59375 -0.796875 C 3.863281 -0.796875 4.101562 -0.847656 4.3125 -0.953125 C 4.53125 -1.066406 4.707031 -1.210938 4.84375 -1.390625 C 4.988281 -1.578125 5.097656 -1.785156 5.171875 -2.015625 C 5.242188 -2.242188 5.285156 -2.488281 5.296875 -2.75 L 5.3125 -8.515625 Z M 6.359375 -8.515625 "/></g></g><g style="fill:#004809;fill-opacity:1;"><g transform="translate(214.352315, 172.574991)"><path style="stroke:none" d="M 5.46875 -2.15625 C 5.46875 -2.414062 5.40625 -2.632812 5.28125 -2.8125 C 5.164062 -2.988281 5.015625 -3.140625 4.828125 -3.265625 C 4.640625 -3.390625 4.429688 -3.488281 4.203125 -3.5625 C 3.984375 -3.644531 3.773438 -3.722656 3.578125 -3.796875 C 3.273438 -3.890625 2.96875 -4.003906 2.65625 -4.140625 C 2.34375 -4.273438 2.054688 -4.441406 1.796875 -4.640625 C 1.546875 -4.835938 1.335938 -5.070312 1.171875 -5.34375 C 1.015625 -5.613281 0.9375 -5.9375 0.9375 -6.3125 C 0.9375 -6.675781 1.015625 -7 1.171875 -7.28125 C 1.335938 -7.570312 1.550781 -7.816406 1.8125 -8.015625 C 2.070312 -8.210938 2.367188 -8.363281 2.703125 -8.46875 C 3.035156 -8.570312 3.367188 -8.625 3.703125 -8.625 C 4.078125 -8.625 4.429688 -8.5625 4.765625 -8.4375 C 5.109375 -8.3125 5.410156 -8.140625 5.671875 -7.921875 C 5.941406 -7.703125 6.15625 -7.429688 6.3125 -7.109375 C 6.476562 -6.796875 6.566406 -6.445312 6.578125 -6.0625 L 5.46875 -6.0625 C 5.4375 -6.300781 5.375 -6.519531 5.28125 -6.71875 C 5.195312 -6.925781 5.078125 -7.101562 4.921875 -7.25 C 4.773438 -7.394531 4.597656 -7.503906 4.390625 -7.578125 C 4.191406 -7.660156 3.960938 -7.703125 3.703125 -7.703125 C 3.492188 -7.703125 3.289062 -7.671875 3.09375 -7.609375 C 2.90625 -7.554688 2.734375 -7.46875 2.578125 -7.34375 C 2.421875 -7.226562 2.296875 -7.082031 2.203125 -6.90625 C 2.109375 -6.738281 2.0625 -6.546875 2.0625 -6.328125 C 2.070312 -6.078125 2.132812 -5.867188 2.25 -5.703125 C 2.375 -5.535156 2.53125 -5.390625 2.71875 -5.265625 C 2.90625 -5.148438 3.101562 -5.050781 3.3125 -4.96875 C 3.53125 -4.894531 3.734375 -4.832031 3.921875 -4.78125 C 4.140625 -4.707031 4.351562 -4.628906 4.5625 -4.546875 C 4.78125 -4.460938 4.988281 -4.363281 5.1875 -4.25 C 5.382812 -4.144531 5.566406 -4.023438 5.734375 -3.890625 C 5.910156 -3.753906 6.0625 -3.597656 6.1875 -3.421875 C 6.3125 -3.253906 6.410156 -3.066406 6.484375 -2.859375 C 6.554688 -2.648438 6.59375 -2.414062 6.59375 -2.15625 C 6.59375 -1.78125 6.507812 -1.445312 6.34375 -1.15625 C 6.175781 -0.875 5.957031 -0.640625 5.6875 -0.453125 C 5.414062 -0.265625 5.109375 -0.125 4.765625 -0.03125 C 4.429688 0.0625 4.09375 0.109375 3.75 0.109375 C 3.375 0.109375 3.003906 0.0507812 2.640625 -0.0625 C 2.285156 -0.175781 1.960938 -0.34375 1.671875 -0.5625 C 1.390625 -0.78125 1.15625 -1.046875 0.96875 -1.359375 C 0.789062 -1.679688 0.695312 -2.046875 0.6875 -2.453125 L 1.796875 -2.453125 C 1.828125 -2.191406 1.894531 -1.957031 2 -1.75 C 2.113281 -1.539062 2.253906 -1.363281 2.421875 -1.21875 C 2.597656 -1.082031 2.796875 -0.976562 3.015625 -0.90625 C 3.242188 -0.832031 3.488281 -0.796875 3.75 -0.796875 C 3.96875 -0.796875 4.175781 -0.820312 4.375 -0.875 C 4.582031 -0.925781 4.765625 -1.007812 4.921875 -1.125 C 5.085938 -1.238281 5.21875 -1.378906 5.3125 -1.546875 C 5.414062 -1.710938 5.46875 -1.914062 5.46875 -2.15625 Z M 5.46875 -2.15625 "/></g></g><g style="fill:#004809;fill-opacity:1;"><g transform="translate(223.31705, 172.574991)"><path style="stroke:none" d="M 1.015625 -8.515625 L 6.15625 -8.515625 L 6.15625 -7.5625 L 4.125 -7.5625 L 4.125 -0.9375 L 6.15625 -0.9375 L 6.15625 0 L 1.015625 0 L 1.015625 -0.9375 L 3.015625 -0.9375 L 3.015625 -7.5625 L 1.015625 -7.5625 Z M 1.015625 -8.515625 "/></g></g><g style="fill:#004809;fill-opacity:1;"><g transform="translate(232.281785, 172.574991)"><path style="stroke:none" d="M 6.34375 0 L 5.25 0 L 1.953125 -6.359375 L 1.921875 0 L 0.828125 0 L 0.828125 -8.515625 L 1.9375 -8.515625 L 5.234375 -2.15625 L 5.25 -8.515625 L 6.34375 -8.515625 Z M 6.34375 0 "/></g></g><g style="fill:#004809;fill-opacity:1;"><g transform="translate(241.246519, 172.574991)"><path style="stroke:none" d="M 5.703125 -3.9375 L 2.140625 -3.9375 L 2.140625 -0.921875 L 6.28125 -0.921875 L 6.28125 0 L 1.0625 0 L 1.0625 -8.515625 L 6.234375 -8.515625 L 6.234375 -7.578125 L 2.140625 -7.578125 L 2.140625 -4.84375 L 5.703125 -4.84375 Z M 5.703125 -3.9375 "/></g></g><g style="fill:#004809;fill-opacity:1;"><g transform="translate(250.211254, 172.574991)"><path style="stroke:none" d="M 5.46875 -2.15625 C 5.46875 -2.414062 5.40625 -2.632812 5.28125 -2.8125 C 5.164062 -2.988281 5.015625 -3.140625 4.828125 -3.265625 C 4.640625 -3.390625 4.429688 -3.488281 4.203125 -3.5625 C 3.984375 -3.644531 3.773438 -3.722656 3.578125 -3.796875 C 3.273438 -3.890625 2.96875 -4.003906 2.65625 -4.140625 C 2.34375 -4.273438 2.054688 -4.441406 1.796875 -4.640625 C 1.546875 -4.835938 1.335938 -5.070312 1.171875 -5.34375 C 1.015625 -5.613281 0.9375 -5.9375 0.9375 -6.3125 C 0.9375 -6.675781 1.015625 -7 1.171875 -7.28125 C 1.335938 -7.570312 1.550781 -7.816406 1.8125 -8.015625 C 2.070312 -8.210938 2.367188 -8.363281 2.703125 -8.46875 C 3.035156 -8.570312 3.367188 -8.625 3.703125 -8.625 C 4.078125 -8.625 4.429688 -8.5625 4.765625 -8.4375 C 5.109375 -8.3125 5.410156 -8.140625 5.671875 -7.921875 C 5.941406 -7.703125 6.15625 -7.429688 6.3125 -7.109375 C 6.476562 -6.796875 6.566406 -6.445312 6.578125 -6.0625 L 5.46875 -6.0625 C 5.4375 -6.300781 5.375 -6.519531 5.28125 -6.71875 C 5.195312 -6.925781 5.078125 -7.101562 4.921875 -7.25 C 4.773438 -7.394531 4.597656 -7.503906 4.390625 -7.578125 C 4.191406 -7.660156 3.960938 -7.703125 3.703125 -7.703125 C 3.492188 -7.703125 3.289062 -7.671875 3.09375 -7.609375 C 2.90625 -7.554688 2.734375 -7.46875 2.578125 -7.34375 C 2.421875 -7.226562 2.296875 -7.082031 2.203125 -6.90625 C 2.109375 -6.738281 2.0625 -6.546875 2.0625 -6.328125 C 2.070312 -6.078125 2.132812 -5.867188 2.25 -5.703125 C 2.375 -5.535156 2.53125 -5.390625 2.71875 -5.265625 C 2.90625 -5.148438 3.101562 -5.050781 3.3125 -4.96875 C 3.53125 -4.894531 3.734375 -4.832031 3.921875 -4.78125 C 4.140625 -4.707031 4.351562 -4.628906 4.5625 -4.546875 C 4.78125 -4.460938 4.988281 -4.363281 5.1875 -4.25 C 5.382812 -4.144531 5.566406 -4.023438 5.734375 -3.890625 C 5.910156 -3.753906 6.0625 -3.597656 6.1875 -3.421875 C 6.3125 -3.253906 6.410156 -3.066406 6.484375 -2.859375 C 6.554688 -2.648438 6.59375 -2.414062 6.59375 -2.15625 C 6.59375 -1.78125 6.507812 -1.445312 6.34375 -1.15625 C 6.175781 -0.875 5.957031 -0.640625 5.6875 -0.453125 C 5.414062 -0.265625 5.109375 -0.125 4.765625 -0.03125 C 4.429688 0.0625 4.09375 0.109375 3.75 0.109375 C 3.375 0.109375 3.003906 0.0507812 2.640625 -0.0625 C 2.285156 -0.175781 1.960938 -0.34375 1.671875 -0.5625 C 1.390625 -0.78125 1.15625 -1.046875 0.96875 -1.359375 C 0.789062 -1.679688 0.695312 -2.046875 0.6875 -2.453125 L 1.796875 -2.453125 C 1.828125 -2.191406 1.894531 -1.957031 2 -1.75 C 2.113281 -1.539062 2.253906 -1.363281 2.421875 -1.21875 C 2.597656 -1.082031 2.796875 -0.976562 3.015625 -0.90625 C 3.242188 -0.832031 3.488281 -0.796875 3.75 -0.796875 C 3.96875 -0.796875 4.175781 -0.820312 4.375 -0.875 C 4.582031 -0.925781 4.765625 -1.007812 4.921875 -1.125 C 5.085938 -1.238281 5.21875 -1.378906 5.3125 -1.546875 C 5.414062 -1.710938 5.46875 -1.914062 5.46875 -2.15625 Z M 5.46875 -2.15625 "/></g></g><g style="fill:#004809;fill-opacity:1;"><g transform="translate(259.175989, 172.574991)"><path style="stroke:none" d="M 5.46875 -2.15625 C 5.46875 -2.414062 5.40625 -2.632812 5.28125 -2.8125 C 5.164062 -2.988281 5.015625 -3.140625 4.828125 -3.265625 C 4.640625 -3.390625 4.429688 -3.488281 4.203125 -3.5625 C 3.984375 -3.644531 3.773438 -3.722656 3.578125 -3.796875 C 3.273438 -3.890625 2.96875 -4.003906 2.65625 -4.140625 C 2.34375 -4.273438 2.054688 -4.441406 1.796875 -4.640625 C 1.546875 -4.835938 1.335938 -5.070312 1.171875 -5.34375 C 1.015625 -5.613281 0.9375 -5.9375 0.9375 -6.3125 C 0.9375 -6.675781 1.015625 -7 1.171875 -7.28125 C 1.335938 -7.570312 1.550781 -7.816406 1.8125 -8.015625 C 2.070312 -8.210938 2.367188 -8.363281 2.703125 -8.46875 C 3.035156 -8.570312 3.367188 -8.625 3.703125 -8.625 C 4.078125 -8.625 4.429688 -8.5625 4.765625 -8.4375 C 5.109375 -8.3125 5.410156 -8.140625 5.671875 -7.921875 C 5.941406 -7.703125 6.15625 -7.429688 6.3125 -7.109375 C 6.476562 -6.796875 6.566406 -6.445312 6.578125 -6.0625 L 5.46875 -6.0625 C 5.4375 -6.300781 5.375 -6.519531 5.28125 -6.71875 C 5.195312 -6.925781 5.078125 -7.101562 4.921875 -7.25 C 4.773438 -7.394531 4.597656 -7.503906 4.390625 -7.578125 C 4.191406 -7.660156 3.960938 -7.703125 3.703125 -7.703125 C 3.492188 -7.703125 3.289062 -7.671875 3.09375 -7.609375 C 2.90625 -7.554688 2.734375 -7.46875 2.578125 -7.34375 C 2.421875 -7.226562 2.296875 -7.082031 2.203125 -6.90625 C 2.109375 -6.738281 2.0625 -6.546875 2.0625 -6.328125 C 2.070312 -6.078125 2.132812 -5.867188 2.25 -5.703125 C 2.375 -5.535156 2.53125 -5.390625 2.71875 -5.265625 C 2.90625 -5.148438 3.101562 -5.050781 3.3125 -4.96875 C 3.53125 -4.894531 3.734375 -4.832031 3.921875 -4.78125 C 4.140625 -4.707031 4.351562 -4.628906 4.5625 -4.546875 C 4.78125 -4.460938 4.988281 -4.363281 5.1875 -4.25 C 5.382812 -4.144531 5.566406 -4.023438 5.734375 -3.890625 C 5.910156 -3.753906 6.0625 -3.597656 6.1875 -3.421875 C 6.3125 -3.253906 6.410156 -3.066406 6.484375 -2.859375 C 6.554688 -2.648438 6.59375 -2.414062 6.59375 -2.15625 C 6.59375 -1.78125 6.507812 -1.445312 6.34375 -1.15625 C 6.175781 -0.875 5.957031 -0.640625 5.6875 -0.453125 C 5.414062 -0.265625 5.109375 -0.125 4.765625 -0.03125 C 4.429688 0.0625 4.09375 0.109375 3.75 0.109375 C 3.375 0.109375 3.003906 0.0507812 2.640625 -0.0625 C 2.285156 -0.175781 1.960938 -0.34375 1.671875 -0.5625 C 1.390625 -0.78125 1.15625 -1.046875 0.96875 -1.359375 C 0.789062 -1.679688 0.695312 -2.046875 0.6875 -2.453125 L 1.796875 -2.453125 C 1.828125 -2.191406 1.894531 -1.957031 2 -1.75 C 2.113281 -1.539062 2.253906 -1.363281 2.421875 -1.21875 C 2.597656 -1.082031 2.796875 -0.976562 3.015625 -0.90625 C 3.242188 -0.832031 3.488281 -0.796875 3.75 -0.796875 C 3.96875 -0.796875 4.175781 -0.820312 4.375 -0.875 C 4.582031 -0.925781 4.765625 -1.007812 4.921875 -1.125 C 5.085938 -1.238281 5.21875 -1.378906 5.3125 -1.546875 C 5.414062 -1.710938 5.46875 -1.914062 5.46875 -2.15625 Z M 5.46875 -2.15625 "/></g></g></g></svg>