<svg width="16" height="23" viewBox="0 0 16 23" fill="none" xmlns="http://www.w3.org/2000/svg">
<path d="M8.1 0.28125C9.18471 0.28125 10.2451 0.602903 11.147 1.20553C12.0489 1.80816 12.7518 2.66471 13.1669 3.66685C13.582 4.66898 13.6906 5.77171 13.479 6.83557C13.2674 7.89944 12.745 8.87666 11.978 9.64366C11.211 10.4107 10.2338 10.933 9.16995 11.1446C8.10608 11.3562 7.00336 11.2476 6.00122 10.8325C4.99908 10.4174 4.14254 9.71448 3.53991 8.81258C2.93728 7.91068 2.61562 6.85033 2.61562 5.76562L2.62111 5.5276C2.68245 4.11565 3.28648 2.78188 4.30725 1.80444C5.32802 0.826991 6.68672 0.281332 8.1 0.28125ZM10.2937 13.4437C11.7483 13.4437 13.1433 14.0216 14.1718 15.0501C15.2003 16.0786 15.7781 17.4736 15.7781 18.9281V20.025C15.7781 20.6068 15.547 21.1648 15.1356 21.5762C14.7242 21.9876 14.1662 22.2187 13.5844 22.2187H2.61562C2.03381 22.2187 1.47582 21.9876 1.06441 21.5762C0.653001 21.1648 0.421875 20.6068 0.421875 20.025V18.9281C0.421875 17.4736 0.999691 16.0786 2.02821 15.0501C3.05673 14.0216 4.4517 13.4437 5.90625 13.4437H10.2937Z" fill="#004809"/>
</svg>
