<svg width="18" height="16" viewBox="0 0 18 16" fill="none" xmlns="http://www.w3.org/2000/svg">
<path d="M0 1.72222C0 1.26546 0.181448 0.827406 0.504427 0.504427C0.827406 0.181448 1.26546 0 1.72222 0H15.5C15.9568 0 16.3948 0.181448 16.7178 0.504427C17.0408 0.827406 17.2222 1.26546 17.2222 1.72222V13.7778C17.2222 14.2345 17.0408 14.6726 16.7178 14.9956C16.3948 15.3186 15.9568 15.5 15.5 15.5H1.72222C1.26546 15.5 0.827406 15.3186 0.504427 14.9956C0.181448 14.6726 0 14.2345 0 13.7778V1.72222ZM5.16667 1.72222H1.72222V13.7778H5.16667V1.72222ZM6.88889 1.72222V13.7778H10.3333V1.72222H6.88889ZM12.0556 1.72222V13.7778H15.5V1.72222H12.0556Z" fill="#004809"/>
</svg>
