<svg width="23" height="23" viewBox="0 0 23 23" fill="none" xmlns="http://www.w3.org/2000/svg">
<g clip-path="url(#clip0_1097_208)">
<path fill="#FFFFFF" fill-rule="evenodd" clip-rule="evenodd" d="M22.7031 20.3683C22.7031 20.9917 22.4555 21.5895 22.0147 22.0303C21.5739 22.4711 20.9761 22.7188 20.3527 22.7188H9.38393C8.76055 22.7187 8.16271 22.4711 7.72191 22.0303C7.28112 21.5895 7.03348 20.9917 7.03348 20.3683V17.33C7.66928 16.8207 8.08181 16.0839 8.18363 15.2757L13.6931 15.2757C14.1561 15.2757 14.6145 15.1845 15.0423 15.0073C15.47 14.8301 15.8587 14.5704 16.1861 14.243C16.5135 13.9156 16.7732 13.527 16.9504 13.0992C17.1276 12.6715 17.2188 12.213 17.2188 11.75C17.2188 11.287 17.1276 10.8285 16.9504 10.4008C16.7732 9.97303 16.5135 9.58436 16.1861 9.25698C15.8587 8.92959 15.47 8.66989 15.0423 8.49271C14.6145 8.31553 14.1561 8.22433 13.6931 8.22433H8.18363C8.08181 7.41611 7.66928 6.6793 7.03348 6.17004V3.1317C7.03348 2.50832 7.28112 1.91047 7.72191 1.46968C8.16271 1.02889 8.76055 0.78125 9.38393 0.78125H20.3527C20.9761 0.78125 21.5739 1.02889 22.0147 1.46968C22.4555 1.91047 22.7031 2.50832 22.7031 3.1317L22.7031 20.3683ZM5.5245 15.9698C5.73927 15.8809 5.92283 15.7302 6.05197 15.5369C6.18111 15.3436 6.25003 15.1164 6.25 14.8839V13.317H13.6931C14.1087 13.317 14.5072 13.1519 14.8011 12.858C15.095 12.5641 15.26 12.1656 15.26 11.75C15.26 11.3344 15.095 10.9359 14.8011 10.642C14.5072 10.3481 14.1087 10.183 13.6931 10.183H6.25V8.61607C6.2498 8.38378 6.18076 8.15677 6.05161 7.96369C5.92246 7.77062 5.73899 7.62015 5.52438 7.53128C5.30976 7.44242 5.07362 7.41915 4.84579 7.46441C4.61795 7.50967 4.40864 7.62143 4.24429 7.78558L1.11036 10.9195C0.890277 11.1399 0.766659 11.4386 0.766659 11.75C0.766659 12.0614 0.890277 12.3" />
</g>
<defs>
<clipPath id="clip0_1097_208">
<rect width="21.9375" height="21.9375" fill="white" transform="matrix(-1 0 0 -1 22.7031 22.7188)"/>
</clipPath>
</defs>
</svg>