<svg width="28" height="28" viewBox="0 0 28 28" fill="none" xmlns="http://www.w3.org/2000/svg">
<path opacity="0.4" d="M19.063 2.33203H8.94801C4.99301 2.33203 2.33301 5.1087 2.33301 9.2387V18.7704C2.33301 22.8887 4.99301 25.6654 8.94801 25.6654H19.063C23.018 25.6654 25.6663 22.8887 25.6663 18.7704V9.2387C25.6663 5.1087 23.018 2.33203 19.063 2.33203Z" fill="#ADB3CC"/>
<path d="M13.9941 12.2354C14.5565 12.2354 15.0156 12.6935 15.0156 13.2559V18.4121C15.0156 18.9744 14.5565 19.4336 13.9941 19.4336C13.432 19.4334 12.9736 18.9743 12.9736 18.4121V13.2559C12.9736 12.6937 13.432 12.2356 13.9941 12.2354ZM14.0068 8.53418C14.5702 8.53434 15.0273 8.99251 15.0273 9.55469C15.0273 10.1169 14.5702 10.5751 13.9951 10.5752C13.4363 10.5752 12.9795 10.117 12.9795 9.55469C12.9796 8.99241 13.441 8.53418 14.0068 8.53418Z" fill="white"/>
</svg>
