<svg width="18" height="16" viewBox="0 0 18 16" fill="none" xmlns="http://www.w3.org/2000/svg">
<path d="M14.75 0H2.75C2.02065 0 1.32118 0.289731 0.805456 0.805456C0.289731 1.32118 0 2.02065 0 2.75V12.75C0 13.4793 0.289731 14.1788 0.805456 14.6945C1.32118 15.2103 2.02065 15.5 2.75 15.5H14.75C15.4793 15.5 16.1788 15.2103 16.6945 14.6945C17.2103 14.1788 17.5 13.4793 17.5 12.75V2.75C17.5 2.02065 17.2103 1.32118 16.6945 0.805456C16.1788 0.289731 15.4793 0 14.75 0ZM16 2.75V7H9.5V1.5H14.75C15.0815 1.5 15.3995 1.6317 15.6339 1.86612C15.8683 2.10054 16 2.41848 16 2.75ZM2.75 1.5H8V7H1.5V2.75C1.5 2.41848 1.6317 2.10054 1.86612 1.86612C2.10054 1.6317 2.41848 1.5 2.75 1.5ZM1.5 12.75V8.5H8V14H2.75C2.41848 14 2.10054 13.8683 1.86612 13.6339C1.6317 13.3995 1.5 13.0815 1.5 12.75ZM14.75 14H9.5V8.5H16V12.75C16 13.0815 15.8683 13.3995 15.6339 13.6339C15.3995 13.8683 15.0815 14 14.75 14Z" fill="#004809"/>
</svg>
