<svg width="27" height="28" viewBox="0 0 27 28" fill="none" xmlns="http://www.w3.org/2000/svg">
<path opacity="0.41" d="M7.31 11.99C8.24 11.99 9.12 11.72 9.86 11.25C10.56 10.81 11.13 10.2 11.52 9.47C11.6 9.32 11.67 9.17 11.73 9.01C11.16 7.96 10.84 6.75 10.84 5.47C10.84 5.01 10.88 4.56 10.97 4.13C10.08 3.09 8.77 2.43 7.31 2.43C4.67 2.43 2.52 4.57 2.52 7.21C2.52 9.85 4.67 11.99 7.31 11.99ZM8.46 13.88C8.09 13.96 7.7 13.99 7.31 13.99C5.39 13.99 3.65 13.19 2.41 11.89C0.93 13.22 0 15.15 0 17.3V23.99C0 25.33 1.09 26.43 2.44 26.43H7.99C7.9 26.07 7.85 25.69 7.85 25.3V17.4C7.85 16.17 8.07 14.98 8.46 13.88ZM18.307 10.943C21.324 10.943 23.778 8.488 23.778 5.472C23.778 2.455 21.323 0 18.307 0C15.29 0 12.835 2.455 12.835 5.472C12.835 8.488 15.29 10.943 18.307 10.943Z" fill="white"/>
<path d="M23.5596 10.7795C22.2096 12.1095 20.3596 12.9395 18.3096 12.9395C16.2596 12.9395 14.3996 12.1095 13.0496 10.7695C11.0996 12.3295 9.84961 14.7195 9.84961 17.3995V25.2995C9.84961 26.7895 11.0696 27.9995 12.5596 27.9995H24.0596C25.5496 27.9995 26.7596 26.7895 26.7596 25.2995V17.3995C26.7596 14.7195 25.5096 12.3295 23.5596 10.7795Z" fill="white"/>
</svg>
