<svg width="9" height="11" viewBox="0 0 9 11" fill="none" xmlns="http://www.w3.org/2000/svg">
<path d="M0.834614 4.60463C0.879345 4.55871 1.04824 4.36238 1.20557 4.20088C2.12796 3.18517 4.5342 1.52267 5.79362 1.01521C5.98488 0.933667 6.46844 0.761083 6.7268 0.75C6.97437 0.75 7.21036 0.807 7.43556 0.922583C7.71629 1.08408 7.94149 1.33821 8.06489 1.63825C8.14432 1.84646 8.26772 2.4695 8.26772 2.48058C8.39112 3.16221 8.45898 4.26975 8.45898 5.49367C8.45898 6.65979 8.39112 7.72221 8.29009 8.41412C8.27852 8.42521 8.15512 9.19946 8.02016 9.46467C7.77259 9.94917 7.28903 10.25 6.77154 10.25H6.7268C6.38978 10.2381 5.68102 9.93729 5.68102 9.92621C4.48947 9.41796 2.13876 7.837 1.19401 6.78646C1.19401 6.78646 0.927933 6.5165 0.812248 6.34788C0.631781 6.10563 0.542318 5.80558 0.542318 5.50554C0.542318 5.17067 0.643349 4.85875 0.834614 4.60463" fill="#4CAF50"/>
</svg>
